<?xml version="1.0" encoding="UTF-8"?><svg xmlns="http://www.w3.org/2000/svg" xmlns:xlink="http://www.w3.org/1999/xlink" width="1012.5pt" zoomAndPan="magnify" viewBox="0 0 1012.5 355.499994" height="355.499994pt" preserveAspectRatio="xMidYMid meet" version="1.2"><defs><clipPath xml:id="clip1" id="clip1"><path d="M 0.460938 35 L 1011.539062 35 L 1011.539062 355 L 0.460938 355 Z M 0.460938 35 "/></clipPath></defs><g xml:id="surface1" id="surface1"><g clip-rule="nonzero" clip-path="url(#clip1)"><path style=" stroke:none;fill-rule:nonzero;fill:rgb(100%,100%,100%);fill-opacity:1;" d="M 1005.328125 269.554688 C 1005.378906 275.722656 1006.15625 281.90625 1005.433594 288.0625 C 1002.199219 286.566406 1003.941406 287.832031 1002.03125 249.523438 C 991.527344 247.746094 989.742188 250.253906 986.480469 247.921875 C 982.882812 250.253906 978.214844 248.679688 974.414062 250.488281 C 975.011719 250.714844 976.207031 251.175781 976.800781 251.402344 C 976.054688 252.152344 975.335938 252.90625 974.632812 253.675781 C 975.25 253.902344 976.492188 254.351562 977.117188 254.570312 C 975.914062 255.136719 974.710938 255.6875 973.511719 256.230469 C 973.355469 254.007812 973.308594 251.769531 973.65625 249.5625 C 973.105469 249.667969 972.023438 249.878906 971.472656 249.992188 C 971.570312 250.179688 971.757812 250.558594 971.847656 250.746094 C 971.375 252.785156 971.726562 254.984375 970.613281 256.863281 C 969.800781 254.503906 969.703125 252.011719 969.433594 249.5625 C 969.175781 257.734375 969.660156 265.921875 969.9375 274.097656 C 963.992188 271.777344 958.066406 269.394531 952.144531 267.015625 C 951.691406 261.78125 951.902344 256.515625 951.445312 251.28125 C 951.203125 253.796875 951.1875 256.335938 950.871094 258.851562 C 949.894531 256.558594 950 254.050781 950.015625 251.625 C 945.714844 251.316406 941.402344 251.113281 937.105469 251.453125 C 936.902344 252.597656 936.722656 253.757812 936.382812 254.875 C 936.382812 254.121094 936.390625 252.621094 936.390625 251.867188 C 934.898438 251.324219 933.457031 250.707031 932.046875 250.015625 C 932.144531 250.40625 932.339844 251.195312 932.445312 251.589844 C 929.332031 252.054688 926.167969 252.003906 923.039062 252.214844 C 922.632812 253.300781 922.292969 254.453125 921.269531 255.113281 C 921.570312 254.414062 922.164062 253.011719 922.46875 252.304688 C 914.605469 252.800781 929.164062 258.28125 801.015625 206.445312 C 796.808594 204.683594 792.496094 203.15625 788.472656 200.992188 C 788.792969 183.433594 789.417969 165.886719 789.839844 148.328125 C 786.929688 148.628906 784.023438 148.945312 781.117188 149.214844 C 780.484375 145.300781 780.34375 141.335938 780.5 137.382812 C 778.492188 136.175781 776.488281 134.972656 774.492188 133.757812 C 774.289062 128.269531 774.9375 122.785156 774.839844 117.300781 C 772.9375 114.0625 769.886719 111.597656 767.90625 108.367188 C 768.089844 92.835938 767.613281 105.613281 766.628906 77.347656 C 766.742188 76.113281 765.921875 75.203125 765.175781 74.359375 C 764.722656 80.625 765.710938 86.921875 765.199219 93.191406 C 764.558594 98.222656 765.125 103.292969 765.222656 108.34375 C 764.101562 108.503906 763.007812 108.675781 761.910156 108.851562 C 761.722656 113.601562 762.285156 118.347656 762.1875 123.109375 C 760.359375 124.457031 758.539062 125.820312 756.722656 127.183594 C 757.421875 132.667969 756.390625 138.164062 756.183594 143.65625 C 755.8125 146.878906 756.023438 150.128906 755.820312 153.359375 C 755.347656 156.558594 751.777344 158.058594 750.746094 160.9375 C 749.925781 174.472656 751.363281 188.007812 751.394531 201.550781 C 736.414062 210.480469 740.769531 209.835938 734.371094 207.726562 C 722.222656 202.441406 709.699219 197.996094 697.871094 191.992188 C 697.484375 185.015625 697.1875 153.6875 696.871094 150.421875 C 695.304688 146.464844 691.519531 143.726562 690.242188 139.636719 C 689.449219 131.550781 689.78125 123.296875 688.003906 115.335938 C 686.441406 113.03125 683.804688 111.675781 682.15625 109.40625 C 682.5625 105.089844 682.488281 100.738281 681.878906 96.453125 C 680.726562 96.460938 679.582031 96.460938 678.445312 96.464844 C 679.109375 86.078125 676.828125 78.132812 677.167969 62.125 C 676.890625 61.675781 676.332031 60.761719 676.054688 60.3125 C 675.398438 67.277344 676.691406 74.277344 675.796875 81.230469 C 675.140625 86.214844 676.308594 91.222656 675.691406 96.195312 C 674.585938 99.75 670.867188 101.46875 668.316406 103.871094 C 668.667969 110.636719 669.472656 117.371094 669.851562 124.125 C 668.089844 125.398438 666.140625 126.460938 664.65625 128.074219 C 664.679688 131.726562 664.792969 135.394531 663.597656 138.914062 C 661.042969 139.242188 658.507812 139.621094 655.980469 140.019531 C 655.441406 140.105469 658.023438 169.667969 658.230469 172.398438 C 661.796875 220.089844 665.957031 231.609375 643.492188 275.964844 C 641.820312 279.265625 640.851562 281.285156 638.984375 282.464844 C 625.207031 291.632812 622.636719 292.527344 619.867188 292.851562 C 619.859375 292.285156 619.84375 291.164062 619.835938 290.605469 C 618.730469 291.21875 617.632812 291.820312 616.519531 292.398438 C 616.480469 291.441406 616.449219 290.488281 616.425781 289.535156 C 616.046875 289.414062 615.683594 289.246094 615.339844 289.042969 C 614.703125 289.039062 614.011719 289.03125 613.582031 289.027344 C 613.589844 288.511719 613.585938 287.996094 613.589844 287.484375 C 612.792969 286.449219 612.308594 285.175781 612.308594 283.875 C 612.308594 102.332031 607.546875 125.109375 613.597656 116.660156 C 612.371094 80.472656 612.457031 50.070312 611.835938 35.605469 C 609.457031 35.644531 606.898438 35.539062 604.980469 37.1875 C 599.320312 37.257812 600.269531 34.816406 567.269531 37.332031 C 559.429688 34.914062 554.199219 47.023438 539.90625 49.035156 C 540.242188 58.15625 539.4375 67.390625 540.988281 76.429688 C 540.257812 81.019531 540.492188 85.679688 539.917969 90.28125 C 540.199219 90.585938 540.746094 91.179688 541.019531 91.480469 C 541.132812 92.722656 541.265625 93.972656 541.417969 95.21875 C 541.035156 96.097656 540.65625 96.980469 540.289062 97.867188 C 519.570312 97.09375 524.03125 97.449219 516.867188 100.996094 C 516.566406 102.515625 516.257812 104.046875 515.949219 105.574219 C 510.941406 105.332031 505.238281 105.726562 501.683594 109.753906 C 501.683594 109.753906 502.082031 292.964844 502.082031 292.964844 C 497.867188 292.851562 493.632812 292.574219 489.597656 291.253906 C 486.207031 279.300781 490.140625 118.714844 486.660156 75 C 486.660156 75 440.746094 73.695312 438.929688 73.71875 C 436.84375 75.382812 434.578125 76.792969 432.199219 77.984375 C 432.246094 79.746094 432.304688 81.515625 432.378906 83.285156 C 429.785156 83.285156 427.1875 83.269531 424.597656 83.105469 C 422.777344 84.640625 420.78125 85.960938 418.726562 87.148438 C 417.039062 105.199219 425.207031 223.179688 421.542969 234.972656 C 423.582031 241.082031 421.390625 247.441406 421.972656 253.683594 C 421.519531 258.691406 422.136719 263.71875 421.789062 268.726562 C 421.699219 271.308594 420.546875 273.675781 420.1875 276.207031 C 419.945312 278.953125 420.097656 281.71875 420.035156 284.484375 C 415.730469 284.882812 411.382812 284.386719 407.082031 284.832031 C 406.40625 285.546875 405.878906 286.382812 405.320312 287.1875 C 408.234375 287.398438 411.15625 287.496094 414.066406 287.746094 C 414.585938 288.347656 415.121094 288.949219 415.65625 289.550781 C 415.671875 290.003906 415.699219 290.910156 415.707031 291.359375 C 416.949219 291.617188 418.675781 290.953125 419.578125 292.128906 C 419.683594 292.730469 419.894531 293.9375 420.007812 294.539062 C 418.394531 294.207031 416.816406 293.832031 415.234375 293.425781 C 415.046875 292.882812 414.671875 291.8125 414.480469 291.277344 C 413.886719 292.023438 413.300781 292.785156 412.722656 293.535156 C 411.734375 293.785156 410.757812 294.035156 409.777344 294.28125 C 409.71875 293.671875 409.589844 292.4375 409.53125 291.820312 C 409.160156 292.511719 408.808594 293.207031 408.460938 293.914062 C 406.871094 293.65625 404.773438 294.132812 404.066406 292.25 C 404.066406 293.191406 404.058594 294.148438 404.050781 295.101562 C 403.257812 294.386719 402.484375 293.671875 401.710938 292.957031 C 401.601562 293.746094 401.386719 295.328125 401.28125 296.121094 C 400.886719 295.472656 400.503906 294.824219 400.128906 294.175781 C 400.234375 293.957031 400.429688 293.507812 400.535156 293.289062 C 394.984375 279.90625 399.238281 83.789062 397.75 50.210938 C 389.316406 49.742188 352.601562 48.878906 345.019531 48.125 C 343.089844 49.921875 341.082031 51.632812 339.125 53.394531 C 339.171875 55.550781 339.09375 57.703125 338.988281 59.859375 C 336.957031 59.761719 334.925781 59.664062 332.894531 59.519531 C 330.753906 61.710938 326.8125 63.203125 327.171875 66.835938 C 327.171875 66.835938 328.347656 302.800781 328.347656 302.800781 C 326.074219 302.792969 323.792969 302.785156 321.519531 302.777344 C 321.691406 301.753906 321.882812 300.746094 322.0625 299.734375 C 321.648438 299.261719 321.242188 298.792969 320.835938 298.328125 C 320.640625 298.582031 320.234375 299.09375 320.03125 299.351562 C 317.132812 299.304688 314.234375 299.207031 311.34375 299.101562 C 311.441406 294.355469 311.5625 289.605469 310.75 284.902344 C 311.570312 284.566406 312.390625 284.234375 313.210938 283.902344 C 311.195312 283.910156 309.183594 283.917969 307.175781 283.886719 C 307.753906 284.316406 308.339844 284.753906 308.929688 285.191406 C 308.613281 291.035156 309.304688 296.894531 308.929688 302.753906 C 307.8125 302.742188 306.714844 302.734375 305.609375 302.726562 C 305.503906 297.371094 305.164062 291.984375 305.730469 286.636719 L 307.429688 287.675781 C 306.675781 286.417969 305.367188 285.378906 305.339844 283.8125 C 304.882812 277.644531 305.199219 244.394531 304.5625 235.945312 C 299.722656 235.054688 293.964844 233.050781 289.652344 236.472656 C 287.777344 238.105469 285.183594 238.089844 282.878906 238.601562 C 282.804688 239.167969 282.652344 240.28125 282.578125 240.847656 C 280.90625 240.898438 279.214844 241.171875 277.570312 240.773438 C 276.863281 237.433594 277.699219 233.976562 276.96875 230.65625 C 276.1875 229.601562 275.15625 228.765625 274.214844 227.863281 C 274.222656 223.335938 274.492188 218.816406 274.726562 214.304688 C 273.871094 214.25 273.011719 214.199219 272.152344 214.144531 C 272.582031 210.964844 270.414062 208.730469 268.230469 206.832031 C 268.171875 203.410156 268.179688 200 268.164062 196.585938 C 267.019531 196.4375 265.867188 196.292969 264.730469 196.15625 C 264.542969 191.726562 264.933594 187.277344 264.386719 182.863281 C 263.195312 187.457031 264.421875 192.25 263.648438 196.886719 C 262.773438 199.359375 260.1875 200.550781 258.273438 202.117188 C 258.785156 206.996094 259.359375 211.878906 259.457031 216.78125 C 257.605469 217.398438 255.683594 217.875 253.953125 218.792969 C 253.878906 219.367188 253.734375 220.511719 253.660156 221.082031 C 252.628906 221.285156 251.597656 221.488281 250.574219 221.691406 C 252.972656 268.679688 252.761719 266.492188 251.386719 268.648438 C 251.742188 268.515625 252.441406 268.234375 252.785156 268.09375 C 253.171875 274.910156 254.050781 282.179688 250.710938 288.460938 C 250.816406 288.785156 251.035156 289.429688 251.140625 289.746094 C 250.121094 294.402344 249.195312 299.171875 246.734375 303.320312 C 246.488281 302.304688 246.1875 301.308594 245.847656 300.332031 C 244.546875 300.097656 243.214844 300.023438 241.902344 299.910156 C 242.128906 299.3125 242.363281 298.726562 242.597656 298.140625 C 240.78125 300.359375 238.839844 302.492188 236.632812 304.339844 C 235.859375 297.851562 236.296875 291.300781 236.257812 284.785156 C 236.597656 284.488281 237.265625 283.894531 237.597656 283.601562 C 237.273438 283.40625 236.613281 283.019531 236.28125 282.832031 C 236.199219 264.621094 236.183594 246.40625 236.242188 228.199219 C 231.703125 227.929688 227.144531 226.363281 222.605469 227.417969 C 220.996094 227.734375 220.859375 229.5625 220.355469 230.816406 C 217.984375 230.964844 215.621094 231.144531 213.257812 231.34375 C 213.800781 231.402344 214.882812 231.523438 215.425781 231.589844 C 215.441406 232.269531 215.460938 233.617188 215.476562 234.292969 C 214.363281 234.40625 213.25 234.511719 212.144531 234.625 C 211.886719 233.382812 211.632812 232.140625 211.367188 230.90625 C 210.929688 231.875 210.511719 232.847656 210.105469 233.835938 C 207.019531 234.386719 203.960938 235.734375 200.777344 235.027344 C 200.011719 235.410156 199.242188 235.785156 198.480469 236.171875 C 198.234375 237.015625 197.984375 237.859375 197.738281 238.707031 C 197.097656 238.511719 196.457031 238.324219 195.824219 238.136719 C 195.117188 238.542969 194.410156 238.949219 193.695312 239.347656 C 193.222656 242.339844 192.589844 245.390625 193.152344 248.417969 C 194.09375 254.089844 192.265625 259.746094 192.914062 265.417969 C 193.011719 266.375 193.386719 274.851562 192.890625 278.164062 C 192.46875 281.03125 193.515625 283.886719 193.125 286.765625 C 192.304688 293.214844 193.117188 299.714844 192.921875 306.191406 C 191.121094 306.3125 189.292969 306.3125 187.523438 306.695312 C 187.222656 307.734375 187.050781 308.804688 186.847656 309.867188 C 184.429688 309.84375 182 309.988281 179.597656 309.695312 C 178.9375 309.910156 178.289062 310.152344 177.65625 310.417969 C 177.535156 311.605469 177.558594 312.804688 177.550781 314.011719 C 177.703125 312.992188 177.769531 311.945312 178.25 311.035156 C 179.847656 310.855469 178.949219 313.046875 179.3125 313.972656 C 178.242188 314.234375 177.175781 314.507812 176.113281 314.785156 C 176.167969 317.988281 176.28125 321.195312 176.136719 324.40625 C 167.054688 326.21875 177.089844 324.695312 155.558594 326.054688 C 155.492188 324.832031 154.953125 305.277344 154.980469 297.0625 C 155.402344 296.777344 156.25 296.21875 156.671875 295.941406 C 156.199219 296.066406 155.265625 296.316406 154.789062 296.445312 C 154.875 293.324219 154.898438 236.175781 154.519531 218.777344 C 153.359375 218.726562 152.195312 218.65625 151.035156 218.589844 C 147.25 217.046875 143.078125 217.917969 139.105469 217.761719 C 138.691406 219.214844 138.316406 220.675781 137.945312 222.144531 C 134.320312 222.296875 130.683594 222.273438 127.046875 222.214844 C 126.957031 223.085938 126.875 223.96875 126.792969 224.847656 C 125.476562 225.292969 124.179688 225.785156 122.929688 226.378906 C 120.417969 226.605469 117.875 226.550781 115.398438 225.996094 C 114.800781 227.320312 114.289062 228.675781 113.808594 230.054688 C 113.550781 229.949219 113.046875 229.746094 112.792969 229.648438 C 112.507812 229.898438 111.933594 230.402344 111.648438 230.648438 C 110.203125 234.867188 110.285156 239.273438 111.242188 243.582031 C 107.71875 243.523438 104.195312 243.460938 100.691406 243.785156 C 100.179688 245.5625 99.492188 247.289062 98.703125 248.960938 C 94.089844 249.644531 89.429688 249.164062 84.792969 249.113281 C 84.9375 249.488281 85.222656 250.242188 85.367188 250.617188 C 85.050781 250.8125 84.425781 251.214844 84.109375 251.410156 C 84.144531 250.785156 84.214844 249.539062 84.25 248.921875 C 83.527344 249.546875 82.820312 250.171875 82.105469 250.8125 C 80.984375 251.191406 79.871094 251.582031 78.757812 251.972656 C 78.839844 264.53125 78.554688 277.085938 78.425781 289.644531 C 76.703125 289.417969 74.984375 289.136719 73.269531 288.867188 C 73.253906 286.53125 73.316406 284.195312 73.429688 281.871094 C 74.84375 281.710938 76.257812 281.546875 77.664062 281.3125 C 76.332031 280.808594 74.949219 280.484375 73.554688 280.25 C 73.519531 280.023438 73.457031 279.585938 73.429688 279.359375 C 74.878906 279.234375 76.339844 279.082031 77.785156 278.886719 C 74.910156 277.773438 71.179688 277.148438 68.402344 278.773438 C 69.859375 278.902344 71.328125 278.984375 72.789062 279.050781 C 72.742188 279.375 72.660156 280.023438 72.625 280.347656 C 71.15625 280.300781 69.542969 280.023438 68.378906 281.175781 C 69.875 281.386719 71.382812 281.550781 72.886719 281.710938 C 72.828125 284.023438 72.707031 286.34375 72.511719 288.65625 C 71.382812 288.792969 70.191406 288.722656 69.101562 289.070312 C 67.632812 290.117188 66.835938 291.789062 66.097656 293.386719 C 62.964844 293.605469 59.828125 293.71875 56.6875 293.5 C 56.539062 293.890625 56.246094 294.683594 56.09375 295.074219 C 51.1875 297.664062 44.597656 295 44.132812 298.878906 C 41.714844 310.355469 45.199219 313.300781 43.09375 319.492188 C 42.636719 331.378906 43.9375 325.101562 40.09375 334.632812 C 39.273438 332.585938 38.769531 330.40625 39.144531 328.199219 C 37.941406 328.351562 36.734375 328.503906 35.53125 328.652344 C 35.132812 329.429688 34.734375 330.21875 34.335938 331.011719 C 34.734375 331.90625 35.132812 332.816406 35.523438 333.730469 C 34.425781 333.859375 33.324219 333.984375 32.226562 334.113281 C 32.933594 333.925781 34.355469 333.539062 35.066406 333.34375 C 34.167969 332.804688 33.28125 332.277344 32.390625 331.742188 C 32.183594 332.375 31.761719 333.632812 31.550781 334.265625 C 31.460938 333.074219 31.363281 331.882812 31.269531 330.703125 C 27.953125 330.640625 24.625 330.609375 21.304688 330.714844 C 20.539062 332.484375 19.492188 334.105469 18.210938 335.550781 C 17.8125 335.207031 17.015625 334.503906 16.617188 334.160156 C 15.625 334.4375 14.628906 334.730469 13.636719 335.007812 C 13.695312 334.316406 13.757812 333.632812 13.824219 332.945312 C 12.304688 330.949219 11.183594 328.628906 9.347656 326.890625 C 7.878906 325.496094 6.417969 324.074219 5.371094 322.332031 C 4.21875 324.539062 2.25 326.078125 0.472656 327.75 L 0.472656 355.324219 L 1012.050781 355.324219 L 1012.050781 269.351562 C 1009.796875 269.417969 1007.5625 269.480469 1005.328125 269.554688 Z M 57.582031 294.652344 C 59.953125 294.070312 62.410156 294.019531 64.839844 294.050781 C 64.863281 294.378906 64.921875 295.042969 64.953125 295.375 C 62.5 295.1875 59.886719 295.714844 57.582031 294.652344 Z M 128.5 225.707031 C 128.476562 225.164062 128.4375 224.074219 128.425781 223.523438 C 130.75 223.464844 133.082031 223.5 135.386719 223.832031 C 134.597656 227.003906 130.847656 225.375 128.5 225.707031 Z M 157.011719 327.863281 C 155.769531 328.285156 155.347656 327.890625 155.753906 326.679688 C 157.003906 326.25 157.417969 326.640625 157.011719 327.863281 Z M 159.042969 326.625 C 159.710938 325.828125 161.570312 325.820312 161.8125 327.019531 C 161.527344 328.335938 158.433594 328.179688 159.042969 326.625 Z M 164.566406 327.125 C 163.910156 327.96875 161.441406 327.457031 162.445312 326.203125 C 163.082031 325.363281 165.582031 325.867188 164.566406 327.125 Z M 166.539062 326.46875 C 166.914062 325.355469 169.066406 325.390625 169.375 326.550781 C 168.96875 327.644531 166.878906 327.582031 166.539062 326.46875 Z M 175.625 326.402344 C 174.398438 326.816406 173.945312 326.414062 174.277344 325.203125 C 175.503906 324.773438 175.945312 325.171875 175.625 326.402344 Z M 489.980469 297.710938 C 491.046875 296.882812 491.882812 298.816406 490.941406 299.433594 C 489.84375 300.285156 488.992188 298.320312 489.980469 297.710938 Z M 498.183594 302.898438 C 495.957031 302.871094 493.742188 302.539062 491.660156 301.746094 C 491.09375 301.914062 489.964844 302.246094 489.402344 302.410156 C 490.125 299.585938 493.488281 298.960938 495.414062 297.128906 C 493.59375 296.6875 491.777344 296.265625 489.996094 295.738281 C 492.238281 294.375 494.949219 295.140625 497.417969 294.683594 C 496.914062 296.128906 495.574219 296.933594 494.519531 297.945312 C 495.375 297.867188 497.085938 297.710938 497.9375 297.636719 C 498.988281 299.1875 498.257812 301.167969 498.183594 302.898438 Z M 502.03125 293.226562 C 502.046875 294.457031 502.058594 295.691406 502.074219 296.925781 C 501.429688 296.679688 500.140625 296.1875 499.492188 295.941406 C 499.890625 294.667969 500.921875 293.875 502.03125 293.226562 Z M 500.246094 303.164062 C 499.742188 301.296875 499.589844 299.359375 500.292969 297.523438 C 500.726562 297.542969 501.609375 297.597656 502.042969 297.621094 C 502.023438 299.433594 502.050781 301.242188 502.144531 303.058594 C 501.667969 303.089844 500.71875 303.140625 500.246094 303.164062 Z M 617.804688 298.328125 C 618.046875 297.175781 617.722656 295.609375 619.078125 295.074219 C 620.527344 294.085938 622.402344 294.472656 624.066406 294.246094 C 624.089844 295.375 624.121094 296.511719 624.15625 297.648438 C 622.035156 297.84375 619.917969 298.117188 617.804688 298.328125 Z M 633.382812 299.382812 C 630.53125 299.359375 627.710938 298.898438 624.933594 298.296875 C 624.820312 296.179688 624.78125 294.058594 624.40625 291.976562 C 629.261719 289.160156 633.746094 285.605469 638.933594 283.429688 C 637.019531 288.722656 634.65625 293.859375 633.382812 299.382812 Z M 650.671875 299.074219 C 650.769531 297.792969 650.476562 296.640625 649.800781 295.617188 C 649.816406 296.496094 649.859375 298.253906 649.875 299.125 C 649.550781 299.609375 649.242188 300.097656 648.933594 300.585938 L 650.402344 300.867188 C 649.785156 301.621094 649.070312 301.875 648.257812 301.625 C 648.386719 300.738281 648.609375 299.863281 648.8125 298.996094 C 646.351562 299.003906 648.21875 295.878906 648.273438 294.449219 C 649.722656 294.96875 650.816406 294.515625 651.546875 293.085938 C 651.765625 295.1875 651.816406 297.296875 651.832031 299.40625 C 651.546875 299.320312 650.960938 299.15625 650.671875 299.074219 Z M 652.714844 291.058594 C 651.15625 291.472656 649.898438 292.40625 648.730469 293.46875 C 648.632812 292.933594 648.4375 291.855469 648.339844 291.316406 C 648.820312 291.433594 649.792969 291.660156 650.273438 291.773438 C 650.035156 289.484375 650.652344 287.21875 652.570312 285.792969 C 652.699219 287.542969 652.75 289.296875 652.714844 291.058594 Z M 655.882812 289.023438 C 655.03125 289.339844 654.1875 289.664062 653.351562 289.988281 C 653.332031 287.414062 652.605469 283.035156 656.175781 282.601562 C 656.332031 280.933594 657.125 279.480469 658.34375 278.351562 C 658.621094 281.320312 658.773438 284.292969 658.808594 287.285156 C 657.507812 286.847656 656.191406 286.546875 654.851562 286.375 C 654.738281 287.390625 655.082031 288.273438 655.882812 289.023438 Z M 661.542969 285.191406 C 661.03125 285.476562 660.011719 286.058594 659.5 286.34375 C 658.800781 282.359375 657.65625 277.257812 661.382812 274.390625 C 661.761719 277.96875 662.113281 281.628906 661.542969 285.191406 Z M 663.085938 287.21875 C 662.566406 283.550781 662.445312 279.84375 661.917969 276.183594 C 661.59375 273.996094 662.59375 271.714844 664.703125 270.871094 C 664.898438 275.023438 664.816406 279.179688 664.539062 283.332031 C 664.785156 284.429688 664.90625 285.550781 665.070312 286.683594 C 664.402344 286.855469 663.738281 287.035156 663.085938 287.21875 Z M 733.578125 250.828125 C 730.605469 248.921875 727.414062 247.332031 724.605469 245.179688 C 724.613281 244.886719 724.621094 244.296875 724.628906 244.003906 C 727.917969 241.519531 731.34375 239.125 735.023438 237.238281 C 738.367188 238.308594 741.308594 240.320312 744.433594 241.902344 C 741.445312 245.519531 737.304688 248.011719 733.578125 250.828125 Z M 743.808594 244.042969 C 743.589844 247.9375 742.324219 251.71875 740.691406 255.226562 C 738.5625 253.992188 736.476562 252.695312 734.46875 251.28125 C 737.378906 248.621094 740.570312 246.285156 743.808594 244.042969 Z M 720 245.917969 C 717.585938 248.125 714.785156 249.902344 711.84375 251.332031 C 710.472656 247.824219 709.433594 244.199219 708.3125 240.605469 C 713.972656 237.550781 709.75 237.449219 721.363281 244.109375 C 721.421875 244.523438 721.535156 245.335938 721.597656 245.742188 C 722.761719 245.042969 723.90625 245.835938 724.902344 246.375 C 727.527344 247.957031 730.140625 249.59375 732.628906 251.402344 C 729.199219 254.429688 725.539062 257.214844 721.835938 259.898438 C 720.875 260.890625 719.65625 260.191406 718.8125 259.460938 C 716.28125 257.375 713.128906 255.558594 712.242188 252.167969 C 715.136719 250.308594 717.71875 247.769531 721.09375 246.796875 C 720.722656 246.496094 720.363281 246.203125 720 245.917969 Z M 705.980469 229.023438 C 708.003906 227.710938 710.089844 226.414062 712.339844 225.527344 C 715.921875 226.242188 719.050781 228.539062 722.175781 230.386719 C 722.0625 230.867188 721.84375 231.839844 721.730469 232.320312 C 722.242188 232.058594 723.273438 231.515625 723.785156 231.25 C 727.03125 232.585938 730.175781 234.21875 733.148438 236.070312 C 733.269531 236.3125 733.511719 236.78125 733.636719 237.019531 C 730.230469 239.476562 726.804688 242.066406 723.027344 243.898438 C 719.359375 242.589844 716.246094 240.035156 713.082031 237.8125 C 715.621094 235.867188 718.53125 234.476562 720.992188 232.433594 C 717.929688 233.691406 715.433594 235.964844 712.390625 237.238281 C 707.707031 235.613281 702.898438 230.777344 705.980469 229.023438 Z M 704.332031 228.871094 C 703.203125 225.828125 702.011719 222.769531 701.652344 219.523438 C 704.941406 220.863281 708.207031 222.339844 711.132812 224.367188 C 711.113281 224.632812 711.050781 225.171875 711.019531 225.4375 C 708.980469 226.914062 706.777344 228.214844 704.332031 228.871094 Z M 713.957031 224.886719 C 717.300781 221.910156 721.527344 220.214844 725.308594 217.859375 C 728.625 219.449219 732.21875 220.59375 735.265625 222.703125 C 734.320312 224.320312 725.804688 229.304688 723.808594 230.085938 C 720.378906 228.644531 717.1875 226.710938 713.957031 224.886719 Z M 725.125 230.300781 C 728.84375 227.742188 732.757812 225.496094 736.582031 223.117188 C 739.9375 224.59375 743.414062 225.867188 746.496094 227.90625 C 742.957031 230.941406 739.074219 233.535156 735.152344 236.027344 C 731.742188 234.25 728.007812 232.925781 725.125 230.300781 Z M 738.246094 222.105469 C 751.082031 212.980469 754.757812 211.707031 749.160156 226.300781 C 748.835938 226.492188 748.203125 226.875 747.886719 227.0625 C 744.558594 225.730469 740.757812 224.796875 738.246094 222.105469 Z M 751.28125 203.011719 C 751.5 214.75 752.148438 211.953125 749.550781 213.933594 C 742.347656 210.808594 740.632812 210.738281 740.292969 209.257812 C 743.746094 206.863281 747.433594 204.738281 751.28125 203.011719 Z M 744.402344 212.609375 C 745.472656 213.371094 747.628906 213.390625 747.757812 214.960938 C 735.835938 223.613281 736.929688 222.109375 734.496094 221.21875 C 731.824219 220.042969 729.183594 218.800781 726.625 217.40625 C 729.6875 215.035156 733.1875 213.316406 736.5 211.320312 C 739.042969 209.378906 741.894531 211.796875 744.402344 212.609375 Z M 698.308594 193.425781 C 702.441406 195.078125 733.359375 207.796875 737.273438 209.90625 C 734.550781 212.140625 731.328125 213.617188 728.378906 215.515625 C 724.9375 217.476562 727.339844 218.457031 699.21875 204.398438 C 697.796875 203.8125 698.074219 202.152344 698.097656 200.933594 C 698.269531 198.425781 697.359375 195.855469 698.308594 193.425781 Z M 698.480469 205.316406 C 702.410156 206.800781 722.097656 215.980469 723.914062 217.519531 C 721.273438 220.105469 717.726562 221.558594 714.589844 223.457031 C 712.746094 224.847656 710.78125 223.214844 709.109375 222.386719 C 706.445312 220.722656 703.59375 219.378906 700.972656 217.648438 C 698.316406 214.175781 698.136719 209.527344 698.480469 205.316406 Z M 701.929688 291.34375 C 701.320312 286.066406 701.492188 280.746094 701.824219 275.460938 C 702.125 275.699219 702.742188 276.175781 703.042969 276.417969 C 703.214844 281.085938 703.320312 285.792969 703.320312 290.464844 C 702.976562 290.683594 702.277344 291.125 701.929688 291.34375 Z M 703.203125 272.746094 C 702.878906 273.726562 702.402344 274.625 701.363281 274.945312 C 701.207031 272.535156 701.28125 270.132812 701.492188 267.738281 C 703.304688 270.378906 703.378906 270.570312 704.480469 272.550781 C 704.15625 272.605469 703.515625 272.703125 703.203125 272.746094 Z M 704.796875 290.75 C 704.714844 285.019531 704.1875 279.269531 704.851562 273.554688 C 705.226562 273.425781 705.984375 273.175781 706.363281 273.046875 C 706.371094 278.945312 706.640625 284.835938 706.699219 290.734375 C 706.226562 290.742188 705.269531 290.742188 704.796875 290.75 Z M 711.277344 237.851562 C 710.148438 238.550781 709.011719 239.214844 707.84375 239.832031 C 707.476562 238.332031 707.214844 236.8125 707.070312 235.28125 C 708.539062 236.011719 709.929688 236.886719 711.277344 237.851562 Z M 709.628906 290.078125 C 709.191406 290.027344 708.328125 289.929688 707.890625 289.875 C 707.738281 285.039062 707.851562 280.203125 707.542969 275.375 C 708.824219 275.941406 710.011719 276.980469 709.695312 278.539062 C 709.675781 282.382812 709.824219 286.238281 709.628906 290.078125 Z M 710.804688 278.871094 C 711.238281 279.15625 712.113281 279.722656 712.550781 280.007812 C 712.828125 282.269531 713.015625 284.609375 712.722656 286.886719 C 712.339844 287.179688 711.570312 287.757812 711.1875 288.046875 C 710.992188 284.988281 710.714844 281.9375 710.804688 278.871094 Z M 712.667969 288.242188 C 712.78125 289.175781 712.859375 290.117188 712.894531 291.066406 C 710.9375 291.414062 711.015625 288.730469 712.667969 288.242188 Z M 714.226562 291.148438 C 714.5 288.273438 714.410156 285.363281 714.816406 282.515625 C 715.152344 283.59375 715.613281 284.738281 716.011719 285.824219 C 716.050781 287.617188 716.140625 289.417969 716.183594 291.21875 C 715.695312 291.195312 714.71875 291.164062 714.226562 291.148438 Z M 715.703125 258.332031 C 716.90625 259.324219 719.332031 259.941406 719.308594 261.847656 C 717.074219 264.152344 715.808594 260.027344 715.703125 258.332031 Z M 719.082031 296.332031 C 718.527344 293.28125 717.351562 290.359375 717.1875 287.246094 C 720.769531 288.640625 719.316406 293.394531 719.082031 296.332031 Z M 721.898438 296.1875 C 720.828125 296.988281 719.992188 295.042969 720.851562 294.386719 C 721.90625 293.574219 722.742188 295.519531 721.898438 296.1875 Z M 724.816406 274.488281 C 722.394531 271.058594 720.347656 267.375 718.082031 263.84375 C 718.917969 263.175781 719.761719 262.511719 720.640625 261.878906 C 723.945312 264.6875 727.78125 266.925781 730.695312 270.179688 C 729.296875 271.84375 727.714844 273.371094 725.976562 274.667969 C 725.683594 274.625 725.105469 274.53125 724.816406 274.488281 Z M 729.144531 280.695312 C 727.558594 280.210938 726.851562 277.890625 726.042969 276.429688 C 727.039062 274.261719 729.125 272.824219 730.90625 271.332031 C 731.929688 270.335938 732.96875 271.890625 733.851562 272.339844 C 732.308594 275.136719 731.101562 278.148438 729.144531 280.695312 Z M 733.804688 270.984375 C 733.488281 270.644531 732.863281 269.960938 732.546875 269.621094 C 733.683594 268.605469 734.769531 267.339844 736.402344 267.203125 C 735.65625 268.5 735.511719 270.667969 733.804688 270.984375 Z M 731.902344 269.132812 C 730.425781 269.121094 722.042969 261.800781 721.402344 261.214844 C 725.359375 258.082031 729.128906 254.5625 733.535156 252.070312 C 736.011719 253.285156 738.660156 254.535156 740.554688 256.589844 C 739.136719 262.039062 738.820312 263.597656 731.902344 269.132812 Z M 739.019531 298.695312 C 738.507812 298.515625 738.003906 298.34375 737.515625 298.167969 C 737.460938 295.359375 737.335938 292.558594 737.363281 289.75 C 737.929688 289.558594 738.492188 289.371094 739.074219 289.199219 C 739.042969 292.363281 739.003906 295.527344 739.019531 298.695312 Z M 741.664062 298.832031 C 739.914062 296.65625 740.253906 289.046875 740.390625 286.269531 C 741.160156 285.875 741.925781 285.476562 742.707031 285.085938 C 742.089844 289.65625 742.589844 294.28125 741.664062 298.832031 Z M 744.492188 298.351562 C 741.75 293.421875 743.625 288.082031 743.0625 283.390625 C 743.890625 282.878906 744.734375 282.410156 745.613281 281.972656 C 745.121094 288.421875 745.554688 288.378906 744.492188 298.351562 Z M 746.488281 295.804688 C 746.351562 291.332031 745.644531 286.871094 746.09375 282.394531 C 748.265625 283.039062 747.722656 283.464844 748.066406 295.8125 C 747.675781 295.804688 746.878906 295.804688 746.488281 295.804688 Z M 745.816406 280.121094 C 746.3125 279.332031 746.824219 278.546875 747.34375 277.777344 C 747.699219 279.023438 747.722656 280.324219 747.699219 281.628906 C 747.050781 281.125 746.433594 280.625 745.816406 280.121094 Z M 745.191406 240.9375 C 742.226562 239.945312 739.433594 238.46875 736.792969 236.816406 C 736.761719 236.601562 736.695312 236.15625 736.65625 235.9375 C 740.382812 233.121094 744.199219 230.355469 748.375 228.222656 C 747.886719 232.59375 746.253906 236.703125 745.191406 240.9375 Z M 750.273438 274.308594 C 750.386719 276.25 750.355469 278.199219 750.46875 280.144531 C 750.808594 277.824219 750.128906 275.179688 751.648438 273.183594 C 751.949219 276.65625 751.785156 280.144531 752.101562 283.617188 C 751.125 283.519531 750.175781 283.429688 749.21875 283.332031 C 749.488281 280.363281 747.8125 276.679688 750.273438 274.308594 Z M 750.175781 298.839844 C 749.414062 295.433594 749.316406 291.835938 749.257812 287.421875 C 749.089844 286.53125 749.617188 285.808594 750.105469 285.144531 C 750.617188 286.019531 751.289062 286.757812 752.109375 287.359375 C 752.117188 289.695312 752.101562 292.03125 752.125 294.375 C 751.679688 294.757812 750.792969 295.53125 750.347656 295.917969 C 751.191406 296.902344 751.222656 297.9375 750.175781 298.839844 Z M 903.839844 273.644531 C 903.703125 274.722656 903.589844 275.804688 903.492188 276.898438 C 863.058594 261.324219 828.53125 246.734375 788.035156 223.96875 C 787.621094 220.699219 787.769531 217.339844 788.328125 214.085938 C 797.484375 217.972656 894.121094 261.304688 903.070312 265.386719 C 903.546875 266.535156 904.109375 267.65625 904.863281 268.671875 C 904.792969 270.359375 904.988281 272.242188 903.839844 273.644531 Z M 903.996094 282.871094 C 902.773438 282.289062 870.789062 266.875 868.660156 264.742188 C 880.621094 268.6875 891.984375 274.300781 903.800781 278.683594 C 904.109375 280.054688 904.117188 281.46875 903.996094 282.871094 Z M 819.984375 242.582031 C 810.070312 239.289062 800.597656 234.785156 790.886719 230.941406 C 788.703125 230.273438 788.9375 227.667969 788.734375 225.867188 C 795.222656 228.480469 801.046875 232.441406 807.363281 235.425781 C 811.507812 237.910156 816.363281 239.289062 819.984375 242.582031 Z M 787.484375 271.65625 C 787.980469 272.394531 788.710938 273.085938 788.652344 274.074219 C 788.855469 277.621094 788.792969 281.199219 788.464844 284.738281 C 787.71875 283.820312 787.152344 282.757812 787.296875 281.546875 C 787.289062 278.253906 787.027344 274.933594 787.484375 271.65625 Z M 789.125 296.664062 C 787.929688 297.09375 787.515625 296.679688 787.882812 295.414062 C 789.050781 294.984375 789.472656 295.398438 789.125 296.664062 Z M 789.066406 294.042969 C 789.058594 291.757812 789.082031 289.476562 788.890625 287.203125 C 788.652344 289.703125 788.800781 292.210938 788.71875 294.71875 C 786.371094 292.617188 788.011719 288.875 787.539062 286.101562 C 788.386719 286.605469 789.230469 287.113281 790.109375 287.601562 C 790.109375 289.792969 790.117188 291.992188 790.164062 294.183594 Z M 790 284.292969 L 788.953125 284.25 C 789.328125 280.605469 788.394531 276.746094 789.765625 273.265625 C 790.644531 276.890625 790.019531 280.617188 790 284.292969 Z M 790.59375 275.074219 C 792.390625 276.121094 791.570312 278.515625 791.917969 280.242188 C 792.015625 279.398438 792.210938 277.703125 792.308594 276.859375 C 794.304688 279.550781 792.820312 283.164062 793.144531 286.269531 L 792.050781 286.253906 C 792.023438 285.101562 791.992188 283.949219 791.96875 282.804688 C 791.796875 284.023438 791.632812 285.230469 791.464844 286.449219 C 789.652344 283.023438 790.984375 278.820312 790.59375 275.074219 Z M 793.191406 241.40625 C 800.371094 244.863281 806.878906 249.585938 813.851562 253.464844 C 813.804688 254.746094 813.753906 256.027344 813.699219 257.3125 C 807.617188 254.585938 801.492188 251.914062 795.539062 248.921875 C 793.816406 246.941406 793.679688 243.921875 793.191406 241.40625 Z M 793.113281 293.242188 C 792.375 293.621094 791.632812 293.972656 790.886719 294.304688 C 790.457031 292.316406 790.652344 290.285156 790.691406 288.273438 C 791.035156 288.300781 791.722656 288.363281 792.066406 288.394531 C 792.023438 288.808594 791.917969 289.644531 791.871094 290.058594 C 792.949219 290.164062 794.03125 290.269531 795.132812 290.382812 C 795.160156 291.757812 795.183594 293.144531 795.199219 294.53125 C 794.492188 294.101562 793.800781 293.671875 793.113281 293.242188 Z M 796.085938 286.546875 C 795.460938 287.050781 794.839844 287.542969 794.207031 288.015625 C 792.894531 284.988281 793.722656 281.582031 793.816406 278.40625 C 794.621094 279.648438 795.296875 280.964844 795.988281 282.285156 C 795.628906 282.742188 794.90625 283.65625 794.542969 284.113281 L 796.191406 283.699219 C 796.15625 284.648438 796.117188 285.589844 796.085938 286.546875 Z M 798.195312 294.261719 C 797.035156 295.148438 796.058594 293.015625 797.058594 292.308594 C 798.210938 291.414062 799.121094 293.523438 798.195312 294.261719 Z M 803.191406 293.214844 C 803.175781 292.566406 803.140625 291.269531 803.117188 290.621094 C 802.523438 290.921875 801.328125 291.519531 800.730469 291.8125 C 800.597656 291.632812 800.316406 291.277344 800.183594 291.097656 C 799.972656 289.972656 800.429688 288.023438 798.648438 288.625 L 797.683594 290.070312 C 795.960938 287.746094 796.902344 284.4375 796.660156 281.71875 C 797.902344 282.871094 798.59375 284.445312 799.511719 285.855469 C 799.941406 285.855469 800.792969 285.867188 801.214844 285.867188 C 801.242188 287.316406 801.273438 288.753906 801.3125 290.199219 C 802.335938 290.246094 803.359375 290.304688 804.40625 290.367188 C 804.464844 291.335938 804.53125 292.300781 804.617188 293.28125 C 804.261719 293.265625 803.546875 293.234375 803.191406 293.214844 Z M 800.988281 262.835938 C 803.6875 263.378906 813.898438 271.960938 816.125 274.195312 C 815.761719 274.953125 815.414062 275.722656 815.085938 276.492188 C 814.738281 276.535156 814.03125 276.628906 813.675781 276.671875 C 809.070312 274.019531 806.027344 274.574219 800.988281 262.835938 Z M 817.28125 274.382812 C 821.128906 277.628906 825.417969 280.355469 829.03125 283.878906 C 826.457031 283.617188 819.136719 280.304688 815.121094 276.4375 C 815.808594 275.730469 816.53125 275.039062 817.28125 274.382812 Z M 838.726562 297.113281 C 837.535156 297.476562 837.144531 297.023438 837.550781 295.773438 C 838.726562 295.40625 839.117188 295.847656 838.726562 297.113281 Z M 838.628906 292.828125 C 839.246094 295.925781 835.460938 295.367188 833.503906 295.417969 C 833.496094 294.816406 833.472656 293.621094 833.464844 293.015625 C 832.199219 293.09375 831.816406 293.898438 832.296875 295.449219 C 830.152344 295.164062 828.324219 296.03125 826.878906 297.550781 C 827.128906 297.257812 827.625 296.667969 827.863281 296.375 C 827.625 295.203125 827.375 294.035156 827.171875 292.859375 C 825.992188 293.21875 824.914062 293.746094 824.167969 294.742188 C 822.703125 295.609375 821.078125 296.144531 819.382812 295.730469 C 819.5625 295.101562 819.75 294.484375 819.953125 293.867188 C 816.695312 291.863281 817.078125 287.496094 816.855469 284.175781 C 815.734375 283.910156 814.625 283.648438 813.519531 283.414062 C 811.984375 281.183594 810.394531 278.929688 809.726562 276.265625 C 811.210938 276.914062 812.851562 277.402344 814.113281 278.488281 C 814.25 280.386719 814.46875 282.261719 816.574219 282.976562 C 816.832031 282.027344 817.09375 281.078125 817.375 280.136719 C 825.042969 284.167969 832.824219 288.023438 840.230469 292.527344 Z M 816.832031 272.542969 C 816.226562 269.976562 815.476562 267.4375 815.160156 264.816406 C 815.175781 266.335938 815.203125 267.867188 815.21875 269.394531 C 814.769531 269.597656 813.855469 270.003906 813.40625 270.210938 C 809.339844 267.242188 805.472656 264.023438 801.4375 261.027344 C 798.117188 258.820312 796.800781 254.675781 796.230469 250.933594 C 801.957031 252.636719 807.160156 255.714844 812.636719 258.082031 C 815.484375 258.796875 812.628906 263.421875 815.601562 263.722656 C 816.753906 263.128906 816.21875 261.277344 816.703125 260.207031 C 821.519531 262.152344 855.914062 277.011719 876.042969 291.449219 C 866.6875 292.128906 857.316406 292.144531 847.945312 292.503906 C 842.9375 293.230469 837.78125 289.28125 816.832031 272.542969 Z M 816.039062 255.40625 C 818.902344 256.222656 830.378906 263.316406 832.5625 265.132812 C 829.550781 265.074219 827.023438 263.292969 824.328125 262.203125 C 821.640625 260.882812 818.699219 259.988281 816.273438 258.203125 C 816.214844 257.507812 816.101562 256.109375 816.039062 255.40625 Z M 848.058594 293.574219 C 848.757812 291.796875 851.429688 293.101562 852.9375 292.691406 C 852.9375 295.277344 848.699219 295.949219 848.058594 293.574219 Z M 855.457031 294.539062 C 854.199219 291.691406 858.421875 292.957031 859.972656 292.835938 C 860.078125 293.320312 860.289062 294.289062 860.394531 294.773438 C 858.738281 294.765625 857.082031 294.824219 855.457031 294.539062 Z M 861.992188 294.484375 C 860.761719 291.601562 865.589844 292.964844 867.175781 292.519531 C 866.378906 294.773438 863.960938 294.757812 861.992188 294.484375 Z M 869.816406 294.320312 C 869.652344 293.679688 869.503906 293.046875 869.367188 292.421875 C 871.359375 292.421875 874.328125 291.332031 874.964844 294.003906 C 873.25 294.191406 871.527344 294.265625 869.816406 294.320312 Z M 876.15625 293.972656 C 874.636719 291.894531 878.339844 292.316406 879.40625 292.761719 C 878.902344 294.261719 877.421875 294.191406 876.15625 293.972656 Z M 877.5625 290.410156 C 874.371094 288.390625 870.796875 286.863281 868.117188 284.136719 C 872.4375 285.03125 876.109375 287.585938 880.097656 289.332031 C 881.109375 289.664062 881.769531 290.433594 882.09375 291.464844 C 880.503906 291.496094 878.886719 291.335938 877.5625 290.410156 Z M 884.425781 293.867188 C 884.398438 293.410156 884.328125 292.488281 884.292969 292.03125 C 885.660156 292.21875 887.03125 292.484375 888.363281 292.910156 C 887.339844 294.042969 885.757812 293.71875 884.425781 293.867188 Z M 904.019531 290.359375 C 902.777344 290.710938 901.496094 290.878906 900.253906 291.125 C 901.160156 291.34375 902.046875 291.535156 902.988281 291.746094 C 903.132812 292.128906 903.417969 292.890625 903.558594 293.265625 C 901.828125 293.175781 899.96875 293.621094 898.359375 292.875 C 898.523438 292.363281 898.847656 291.34375 899.015625 290.832031 C 897.523438 290.894531 896.03125 290.945312 894.566406 290.976562 C 894.792969 291.496094 895.257812 292.527344 895.484375 293.039062 C 894.378906 293.160156 893.269531 293.132812 892.1875 292.941406 C 892.449219 292.460938 892.976562 291.511719 893.242188 291.027344 C 888.027344 290.953125 892.515625 293.398438 861.253906 278.855469 C 847.007812 271.808594 861.796875 281.371094 816.273438 253.660156 C 815.941406 252.507812 816.441406 250.769531 814.988281 250.316406 C 814.210938 250.714844 813.460938 251.144531 812.722656 251.597656 C 806.015625 247.664062 799.355469 243.644531 792.753906 239.539062 C 791.097656 237.527344 790.960938 234.640625 790.464844 232.171875 C 842.449219 252.070312 856.625 260.722656 899.730469 282.417969 C 903.75 284.449219 902.777344 283.90625 905.140625 286.433594 L 904.011719 286.457031 C 904.019531 287.753906 904.085938 289.054688 904.019531 290.359375 Z M 906.863281 292.617188 C 906.519531 290.667969 909.21875 291.667969 910.296875 291.230469 C 909.695312 292.558594 908.21875 293.824219 906.863281 292.617188 Z M 913.214844 290.691406 C 911.09375 290.335938 908.941406 290.554688 906.820312 290.5 C 906.667969 289.160156 906.527344 287.820312 906.421875 286.488281 C 910.234375 287 915.15625 289.886719 916.175781 292.90625 C 914.613281 292.335938 912.671875 293.859375 913.214844 290.691406 Z M 906.839844 284.242188 C 906.082031 283.023438 906.433594 281.410156 906.179688 280.0625 C 909.605469 280.90625 912.734375 282.585938 916.03125 283.820312 C 916.121094 285.515625 916.160156 287.210938 916.191406 288.914062 C 913.019531 287.472656 909.753906 286.164062 906.839844 284.242188 Z M 915.828125 272.921875 C 915.867188 275.933594 916.054688 278.929688 916.046875 281.945312 C 912.695312 280.898438 909.46875 279.535156 906.261719 278.132812 C 906.804688 274.277344 904.328125 270.308594 906.300781 266.683594 C 910.0625 268.371094 914.023438 269.734375 917.347656 272.257812 C 916.964844 272.421875 916.210938 272.753906 915.828125 272.921875 Z M 917.65625 259.476562 C 916.820312 259.179688 916 258.871094 915.203125 258.554688 C 915.113281 260.960938 914.949219 263.398438 915.796875 265.703125 C 915.730469 266.480469 915.59375 267.25 915.390625 268.003906 C 916.023438 267.488281 916.699219 267.023438 917.421875 266.609375 C 917.949219 268.265625 915.8125 268.234375 915.023438 269.003906 C 912.125 267.664062 909.070312 266.652344 906.277344 265.101562 C 905.320312 261.832031 906.8125 258.121094 905.261719 255.03125 C 904.800781 255.039062 903.882812 255.0625 903.433594 255.074219 C 903.402344 258 903.636719 260.914062 903.621094 263.835938 C 898.519531 261.738281 799.539062 218.289062 788.191406 212.328125 C 788.035156 209.160156 788.304688 206.003906 788.5625 202.847656 C 791.484375 203.574219 914.488281 253.589844 915.066406 253.839844 C 915.144531 255.105469 915.21875 256.378906 915.332031 257.652344 C 915.460938 256.378906 915.527344 255.089844 915.671875 253.824219 C 918.214844 254.714844 917.746094 257.304688 917.65625 259.476562 Z M 916.324219 265.078125 C 918.027344 264.234375 917.015625 267.566406 916.28125 265.683594 Z M 915.886719 263.277344 L 915.886719 262.765625 C 916.152344 262.765625 916.6875 262.757812 916.949219 262.757812 L 917.101562 263.355469 C 916.800781 263.332031 916.191406 263.292969 915.886719 263.277344 Z M 915.421875 261.480469 C 915.671875 261.070312 916.175781 260.25 916.421875 259.835938 C 916.671875 260.242188 917.183594 261.058594 917.429688 261.464844 C 916.761719 262.15625 916.089844 262.164062 915.421875 261.480469 Z M 918.355469 258.667969 C 917.816406 257.71875 917.785156 256.417969 918.222656 255.4375 C 919.289062 255.648438 919.539062 258.503906 918.355469 258.667969 Z M 939.078125 254.351562 C 937.761719 254.300781 937.738281 252.070312 939.085938 252.0625 C 940.363281 252.101562 940.394531 254.359375 939.078125 254.351562 Z M 945.273438 257.34375 C 944.277344 257.222656 944.152344 255.453125 945.203125 255.332031 C 946.175781 255.40625 946.304688 257.238281 945.273438 257.34375 Z M 945.695312 254.136719 C 944.574219 254.964844 943.457031 253.003906 944.421875 252.230469 C 945.519531 251.363281 946.640625 253.359375 945.695312 254.136719 Z M 947.96875 258.1875 C 946.746094 256.589844 946.996094 254.480469 947.003906 252.605469 C 947.363281 252.363281 948.078125 251.875 948.441406 251.632812 C 948.382812 253.820312 948.320312 256.019531 947.96875 258.1875 Z M 965.066406 289.777344 C 966.761719 289.792969 968.460938 289.859375 970.171875 290.042969 C 969.035156 291.675781 965.519531 292.167969 965.066406 289.777344 Z M 952.746094 285.175781 C 952.105469 279.738281 952.128906 274.230469 951.984375 268.761719 C 958.148438 270.886719 964.316406 273.199219 970.183594 276.039062 C 970.945312 280.160156 970.53125 284.429688 970.78125 288.609375 C 964.898438 288.988281 958.703125 290.285156 952.746094 285.175781 Z M 992.359375 251.46875 C 991.160156 251.90625 990.75 251.492188 991.109375 250.234375 C 992.285156 249.796875 992.699219 250.203125 992.359375 251.46875 Z M 1000.011719 252.109375 L 999.613281 252.5 C 998.582031 252.863281 998.539062 254.136719 997.90625 254.878906 C 997.46875 253.1875 997.175781 251.453125 997.011719 249.722656 C 998.191406 248.777344 998.273438 250.683594 998.953125 251.160156 C 999.273438 250.738281 999.921875 249.902344 1000.246094 249.480469 C 1000.1875 250.136719 1000.074219 251.453125 1000.011719 252.109375 Z M 1001.542969 252.890625 C 1001.554688 253.230469 1001.449219 255.476562 1000.757812 254.382812 C 1000.34375 252.996094 1000.34375 251.355469 1001 250.046875 C 1001.984375 250.242188 1001.347656 252.117188 1001.542969 252.890625 Z M 1001.542969 252.890625 "/></g><path style=" stroke:none;fill-rule:nonzero;fill:rgb(100%,100%,100%);fill-opacity:1;" d="M 920.199219 256.871094 C 918.964844 259.082031 922.761719 257.019531 920.199219 256.871094 "/><path style=" stroke:none;fill-rule:nonzero;fill:rgb(100%,100%,100%);fill-opacity:1;" d="M 921.820312 257.796875 C 922.242188 258.234375 922.242188 258.234375 921.820312 257.796875 "/><path style=" stroke:none;fill-rule:nonzero;fill:rgb(100%,100%,100%);fill-opacity:1;" d="M 794.507812 295.277344 C 793.398438 297.582031 797 295.320312 794.507812 295.277344 "/><path style=" stroke:none;fill-rule:nonzero;fill:rgb(100%,100%,100%);fill-opacity:1;" d="M 800.679688 295.042969 C 799.59375 297.347656 803.15625 295.097656 800.679688 295.042969 "/><path style=" stroke:none;fill-rule:nonzero;fill:rgb(100%,100%,100%);fill-opacity:1;" d="M 855.511719 295.96875 C 854.3125 298.207031 857.992188 296.164062 855.511719 295.96875 "/><path style=" stroke:none;fill-rule:nonzero;fill:rgb(100%,100%,100%);fill-opacity:1;" d="M 615.921875 297.476562 C 615.992188 299.96875 618.195312 296.355469 615.921875 297.476562 "/><path style=" stroke:none;fill-rule:nonzero;fill:rgb(100%,100%,100%);fill-opacity:1;" d="M 239.1875 302.574219 C 239.3125 305.078125 241.421875 301.378906 239.1875 302.574219 "/><path style=" stroke:none;fill-rule:nonzero;fill:rgb(100%,100%,100%);fill-opacity:1;" d="M 249.851562 269.621094 C 250.203125 270.058594 250.203125 270.058594 249.851562 269.621094 Z M 249.851562 269.621094 "/></g></svg>