<?xml version="1.0" encoding="UTF-8"?><svg xmlns="http://www.w3.org/2000/svg" xmlns:xlink="http://www.w3.org/1999/xlink" width="675pt" zoomAndPan="magnify" viewBox="0 0 675 675.000002" height="675.000002pt" preserveAspectRatio="xMidYMid meet" version="1.2"><defs><clipPath xml:id="clip1" id="clip1"><path d="M 0.5 212.214844 L 674.5 212.214844 L 674.5 425.648438 L 0.5 425.648438 Z M 0.5 212.214844 "/></clipPath></defs><g xml:id="surface1" id="surface1"><g clip-rule="nonzero" clip-path="url(#clip1)"><path style=" stroke:none;fill-rule:nonzero;fill:rgb(85.099792%,85.099792%,85.099792%);fill-opacity:1;" d="M 670.027344 368.507812 C 670.0625 372.613281 670.582031 376.726562 670.097656 380.824219 C 667.945312 379.832031 669.105469 380.671875 667.832031 355.175781 C 660.835938 353.992188 659.644531 355.664062 657.472656 354.109375 C 655.074219 355.664062 651.964844 354.617188 649.433594 355.820312 C 649.828125 355.96875 650.625 356.273438 651.023438 356.425781 C 650.527344 356.925781 650.046875 357.429688 649.578125 357.9375 C 649.988281 358.089844 650.816406 358.390625 651.234375 358.535156 C 650.429688 358.910156 649.628906 359.277344 648.832031 359.636719 C 648.726562 358.160156 648.695312 356.671875 648.925781 355.203125 C 648.558594 355.273438 647.839844 355.414062 647.472656 355.488281 C 647.539062 355.613281 647.664062 355.863281 647.722656 355.988281 C 647.40625 357.347656 647.640625 358.8125 646.898438 360.058594 C 646.359375 358.492188 646.292969 356.832031 646.113281 355.203125 C 645.941406 360.640625 646.265625 366.089844 646.449219 371.53125 C 642.488281 369.984375 638.539062 368.402344 634.59375 366.816406 C 634.292969 363.332031 634.433594 359.828125 634.128906 356.34375 C 633.96875 358.019531 633.957031 359.707031 633.746094 361.382812 C 633.09375 359.859375 633.164062 358.191406 633.175781 356.574219 C 630.3125 356.371094 627.4375 356.234375 624.574219 356.460938 C 624.4375 357.222656 624.316406 357.996094 624.09375 358.738281 C 624.09375 358.234375 624.097656 357.238281 624.097656 356.734375 C 623.105469 356.375 622.140625 355.964844 621.203125 355.503906 C 621.269531 355.761719 621.398438 356.289062 621.46875 356.550781 C 619.394531 356.863281 617.289062 356.828125 615.199219 356.96875 C 614.929688 357.6875 614.703125 358.457031 614.023438 358.898438 C 614.222656 358.429688 614.621094 357.5 614.820312 357.027344 C 609.582031 357.359375 619.285156 361.003906 533.898438 326.507812 C 531.097656 325.335938 528.222656 324.316406 525.539062 322.878906 C 525.757812 311.191406 526.171875 299.511719 526.453125 287.828125 C 524.511719 288.027344 522.578125 288.238281 520.640625 288.417969 C 520.21875 285.8125 520.125 283.175781 520.230469 280.542969 C 518.890625 279.742188 517.558594 278.941406 516.226562 278.132812 C 516.09375 274.476562 516.523438 270.828125 516.457031 267.179688 C 515.191406 265.023438 513.160156 263.382812 511.839844 261.234375 C 511.960938 250.898438 511.644531 259.398438 510.988281 240.589844 C 511.0625 239.769531 510.515625 239.160156 510.019531 238.601562 C 509.71875 242.769531 510.375 246.960938 510.035156 251.132812 C 509.609375 254.480469 509.984375 257.855469 510.050781 261.21875 C 509.300781 261.324219 508.574219 261.441406 507.84375 261.554688 C 507.71875 264.71875 508.09375 267.875 508.027344 271.042969 C 506.808594 271.941406 505.597656 272.847656 504.386719 273.757812 C 504.855469 277.40625 504.167969 281.066406 504.027344 284.71875 C 503.78125 286.863281 503.921875 289.027344 503.785156 291.175781 C 503.46875 293.308594 501.09375 294.304688 500.40625 296.21875 C 499.859375 305.226562 500.816406 314.234375 500.835938 323.25 C 490.855469 329.191406 493.757812 328.761719 489.492188 327.359375 C 481.398438 323.839844 473.054688 320.882812 465.175781 316.886719 C 464.917969 312.246094 464.71875 291.394531 464.507812 289.222656 C 463.464844 286.589844 460.945312 284.765625 460.089844 282.042969 C 459.566406 276.664062 459.785156 271.167969 458.601562 265.871094 C 457.558594 264.335938 455.804688 263.433594 454.703125 261.925781 C 454.976562 259.054688 454.925781 256.15625 454.519531 253.304688 C 453.753906 253.308594 452.988281 253.308594 452.234375 253.3125 C 452.675781 246.402344 451.152344 241.109375 451.378906 230.460938 C 451.195312 230.160156 450.824219 229.550781 450.636719 229.25 C 450.203125 233.886719 451.0625 238.546875 450.46875 243.171875 C 450.03125 246.492188 450.808594 249.824219 450.398438 253.132812 C 449.660156 255.5 447.183594 256.640625 445.480469 258.242188 C 445.71875 262.742188 446.253906 267.226562 446.503906 271.722656 C 445.332031 272.570312 444.03125 273.277344 443.046875 274.347656 C 443.058594 276.78125 443.136719 279.222656 442.339844 281.5625 C 440.636719 281.78125 438.949219 282.03125 437.261719 282.300781 C 436.90625 282.355469 438.625 302.03125 438.761719 303.847656 C 441.140625 335.585938 443.910156 343.253906 428.945312 372.773438 C 427.828125 374.96875 427.183594 376.3125 425.9375 377.097656 C 416.757812 383.199219 415.046875 383.796875 413.203125 384.011719 C 413.195312 383.636719 413.1875 382.890625 413.179688 382.519531 C 412.445312 382.925781 411.710938 383.324219 410.96875 383.710938 C 410.945312 383.074219 410.921875 382.4375 410.910156 381.804688 C 410.65625 381.722656 410.414062 381.613281 410.183594 381.476562 C 409.761719 381.472656 409.300781 381.46875 409.015625 381.464844 C 409.019531 381.125 409.015625 380.78125 409.019531 380.441406 C 408.488281 379.75 408.167969 378.902344 408.167969 378.035156 C 408.167969 257.21875 404.992188 272.375 409.023438 266.753906 C 408.207031 242.667969 408.265625 222.4375 407.851562 212.808594 C 406.265625 212.835938 404.5625 212.765625 403.28125 213.863281 C 399.511719 213.910156 400.144531 212.285156 378.15625 213.957031 C 372.933594 212.347656 369.449219 220.410156 359.921875 221.746094 C 360.148438 227.816406 359.613281 233.964844 360.644531 239.980469 C 360.160156 243.03125 360.316406 246.136719 359.933594 249.199219 C 360.121094 249.398438 360.484375 249.792969 360.664062 249.996094 C 360.742188 250.824219 360.832031 251.65625 360.933594 252.480469 C 360.675781 253.070312 360.425781 253.65625 360.179688 254.246094 C 346.375 253.730469 349.347656 253.964844 344.574219 256.328125 C 344.371094 257.339844 344.167969 258.355469 343.960938 259.375 C 340.625 259.214844 336.824219 259.476562 334.457031 262.15625 C 334.457031 262.15625 334.722656 384.085938 334.722656 384.085938 C 331.914062 384.011719 329.09375 383.828125 326.40625 382.949219 C 324.144531 374.992188 326.765625 268.121094 324.449219 239.027344 C 324.449219 239.027344 293.855469 238.160156 292.644531 238.175781 C 291.253906 239.28125 289.746094 240.21875 288.160156 241.011719 C 288.191406 242.183594 288.230469 243.363281 288.28125 244.542969 C 286.550781 244.542969 284.820312 244.53125 283.097656 244.421875 C 281.882812 245.445312 280.554688 246.320312 279.183594 247.113281 C 278.0625 259.125 283.5 337.644531 281.058594 345.492188 C 282.417969 349.558594 280.960938 353.789062 281.347656 357.945312 C 281.046875 361.277344 281.457031 364.621094 281.226562 367.957031 C 281.164062 369.675781 280.398438 371.25 280.15625 372.933594 C 279.996094 374.761719 280.097656 376.601562 280.058594 378.441406 C 277.1875 378.707031 274.289062 378.378906 271.425781 378.671875 C 270.976562 379.148438 270.625 379.707031 270.253906 380.242188 C 272.195312 380.382812 274.140625 380.449219 276.082031 380.613281 C 276.425781 381.015625 276.78125 381.414062 277.136719 381.816406 C 277.148438 382.117188 277.167969 382.71875 277.171875 383.019531 C 278 383.191406 279.148438 382.75 279.75 383.53125 C 279.820312 383.933594 279.960938 384.734375 280.039062 385.136719 C 278.964844 384.914062 277.910156 384.664062 276.859375 384.394531 C 276.734375 384.03125 276.480469 383.320312 276.355469 382.964844 C 275.960938 383.460938 275.570312 383.964844 275.183594 384.46875 C 274.527344 384.632812 273.875 384.796875 273.222656 384.964844 C 273.183594 384.558594 273.097656 383.734375 273.054688 383.324219 C 272.8125 383.785156 272.574219 384.246094 272.34375 384.71875 C 271.285156 384.546875 269.886719 384.863281 269.414062 383.609375 C 269.414062 384.238281 269.410156 384.875 269.40625 385.511719 C 268.878906 385.035156 268.363281 384.558594 267.84375 384.082031 C 267.773438 384.609375 267.628906 385.660156 267.558594 386.1875 C 267.296875 385.757812 267.042969 385.324219 266.792969 384.894531 C 266.863281 384.75 266.992188 384.449219 267.0625 384.300781 C 263.367188 375.394531 266.199219 244.878906 265.207031 222.527344 C 259.589844 222.214844 235.125 221.644531 230.074219 221.140625 C 228.789062 222.339844 227.449219 223.476562 226.148438 224.648438 C 226.175781 226.082031 226.125 227.515625 226.054688 228.949219 C 224.703125 228.886719 223.347656 228.820312 221.996094 228.726562 C 220.570312 230.183594 217.941406 231.175781 218.183594 233.59375 C 218.183594 233.59375 218.964844 390.632812 218.964844 390.632812 C 217.449219 390.628906 215.929688 390.625 214.417969 390.617188 C 214.53125 389.9375 214.65625 389.265625 214.777344 388.59375 C 214.5 388.277344 214.230469 387.96875 213.960938 387.65625 C 213.828125 387.828125 213.558594 388.167969 213.421875 388.335938 C 211.492188 388.308594 209.5625 388.242188 207.636719 388.171875 C 207.703125 385.015625 207.78125 381.851562 207.242188 378.722656 C 207.785156 378.496094 208.332031 378.277344 208.878906 378.054688 C 207.535156 378.0625 206.199219 378.066406 204.859375 378.046875 C 205.246094 378.332031 205.636719 378.621094 206.027344 378.914062 C 205.816406 382.804688 206.277344 386.703125 206.027344 390.601562 C 205.285156 390.59375 204.550781 390.589844 203.816406 390.582031 C 203.746094 387.019531 203.519531 383.433594 203.894531 379.875 L 205.027344 380.566406 C 204.527344 379.730469 203.65625 379.039062 203.636719 377.996094 C 203.332031 373.890625 203.542969 351.761719 203.117188 346.136719 C 199.894531 345.546875 196.058594 344.214844 193.183594 346.488281 C 191.933594 347.578125 190.207031 347.566406 188.671875 347.90625 C 188.621094 348.285156 188.519531 349.027344 188.46875 349.402344 C 187.355469 349.4375 186.226562 349.617188 185.136719 349.351562 C 184.664062 347.132812 185.21875 344.832031 184.734375 342.621094 C 184.210938 341.917969 183.523438 341.359375 182.898438 340.757812 C 182.902344 337.746094 183.082031 334.738281 183.238281 331.734375 C 182.667969 331.703125 182.097656 331.664062 181.523438 331.632812 C 181.808594 329.515625 180.367188 328.027344 178.910156 326.761719 C 178.871094 324.488281 178.875 322.214844 178.867188 319.945312 C 178.105469 319.84375 177.335938 319.75 176.578125 319.660156 C 176.453125 316.710938 176.714844 313.75 176.347656 310.8125 C 175.554688 313.871094 176.375 317.058594 175.855469 320.144531 C 175.277344 321.789062 173.550781 322.582031 172.277344 323.625 C 172.617188 326.875 173 330.121094 173.0625 333.386719 C 171.832031 333.796875 170.550781 334.113281 169.398438 334.722656 C 169.347656 335.105469 169.253906 335.867188 169.203125 336.25 C 168.515625 336.382812 167.828125 336.519531 167.144531 336.652344 C 168.742188 367.925781 168.601562 366.46875 167.6875 367.90625 C 167.921875 367.816406 168.390625 367.628906 168.621094 367.535156 C 168.875 372.070312 169.464844 376.910156 167.238281 381.089844 C 167.308594 381.304688 167.453125 381.734375 167.523438 381.945312 C 166.847656 385.042969 166.230469 388.21875 164.589844 390.980469 C 164.421875 390.304688 164.222656 389.640625 163.996094 388.988281 C 163.128906 388.835938 162.242188 388.785156 161.371094 388.707031 C 161.519531 388.3125 161.675781 387.921875 161.832031 387.53125 C 160.621094 389.007812 159.328125 390.429688 157.859375 391.65625 C 157.34375 387.339844 157.632812 382.980469 157.609375 378.644531 C 157.832031 378.445312 158.28125 378.050781 158.5 377.855469 C 158.285156 377.726562 157.84375 377.46875 157.621094 377.34375 C 157.566406 365.222656 157.558594 353.101562 157.597656 340.984375 C 154.574219 340.804688 151.535156 339.761719 148.511719 340.464844 C 147.4375 340.675781 147.347656 341.894531 147.011719 342.726562 C 145.433594 342.824219 143.855469 342.945312 142.28125 343.074219 C 142.644531 343.117188 143.367188 343.195312 143.726562 343.242188 C 143.738281 343.691406 143.753906 344.589844 143.761719 345.042969 C 143.019531 345.117188 142.277344 345.1875 141.539062 345.261719 C 141.371094 344.433594 141.199219 343.605469 141.023438 342.785156 C 140.734375 343.433594 140.453125 344.078125 140.179688 344.734375 C 138.125 345.101562 136.089844 346 133.96875 345.527344 C 133.457031 345.78125 132.945312 346.035156 132.4375 346.289062 C 132.273438 346.851562 132.105469 347.414062 131.941406 347.980469 C 131.515625 347.847656 131.089844 347.722656 130.667969 347.597656 C 130.195312 347.867188 129.726562 348.140625 129.25 348.40625 C 128.933594 350.394531 128.511719 352.425781 128.886719 354.441406 C 129.515625 358.214844 128.296875 361.980469 128.726562 365.753906 C 128.792969 366.390625 129.042969 372.03125 128.710938 374.238281 C 128.429688 376.144531 129.128906 378.046875 128.867188 379.960938 C 128.320312 384.253906 128.863281 388.578125 128.734375 392.890625 C 127.535156 392.96875 126.316406 392.96875 125.136719 393.226562 C 124.9375 393.917969 124.820312 394.628906 124.6875 395.335938 C 123.074219 395.320312 121.457031 395.417969 119.855469 395.222656 C 119.414062 395.367188 118.984375 395.527344 118.5625 395.703125 C 118.480469 396.496094 118.496094 397.292969 118.492188 398.09375 C 118.59375 397.417969 118.636719 396.71875 118.957031 396.113281 C 120.023438 395.992188 119.425781 397.453125 119.664062 398.070312 C 118.953125 398.242188 118.242188 398.425781 117.535156 398.609375 C 117.570312 400.738281 117.644531 402.875 117.550781 405.011719 C 111.5 406.21875 118.183594 405.203125 103.839844 406.109375 C 103.792969 405.296875 103.433594 392.28125 103.453125 386.8125 C 103.734375 386.625 104.300781 386.253906 104.582031 386.066406 C 104.265625 386.152344 103.644531 386.316406 103.328125 386.402344 C 103.382812 384.328125 103.398438 346.292969 103.148438 334.714844 C 102.375 334.679688 101.597656 334.632812 100.824219 334.589844 C 98.300781 333.5625 95.523438 334.144531 92.875 334.039062 C 92.601562 335.003906 92.351562 335.976562 92.105469 336.957031 C 89.6875 337.054688 87.265625 337.039062 84.84375 337 C 84.78125 337.582031 84.726562 338.167969 84.671875 338.753906 C 83.792969 339.050781 82.933594 339.375 82.097656 339.773438 C 80.425781 339.921875 78.730469 339.886719 77.078125 339.515625 C 76.683594 340.398438 76.34375 341.300781 76.019531 342.21875 C 75.851562 342.148438 75.515625 342.015625 75.34375 341.949219 C 75.152344 342.113281 74.773438 342.449219 74.582031 342.613281 C 73.621094 345.421875 73.675781 348.355469 74.3125 351.222656 C 71.964844 351.183594 69.617188 351.140625 67.28125 351.359375 C 66.9375 352.539062 66.484375 353.6875 65.957031 354.800781 C 62.882812 355.257812 59.777344 354.9375 56.6875 354.902344 C 56.785156 355.152344 56.972656 355.652344 57.070312 355.90625 C 56.859375 356.035156 56.441406 356.300781 56.230469 356.429688 C 56.257812 356.015625 56.300781 355.1875 56.328125 354.777344 C 55.847656 355.191406 55.375 355.609375 54.898438 356.035156 C 54.152344 356.285156 53.410156 356.546875 52.667969 356.808594 C 52.722656 365.164062 52.53125 373.519531 52.445312 381.875 C 51.296875 381.726562 50.152344 381.539062 49.011719 381.359375 C 49 379.804688 49.039062 378.253906 49.117188 376.703125 C 50.058594 376.597656 51 376.488281 51.941406 376.332031 C 51.050781 375.996094 50.128906 375.78125 49.203125 375.625 C 49.175781 375.476562 49.136719 375.183594 49.117188 375.035156 C 50.082031 374.949219 51.058594 374.847656 52.019531 374.71875 C 50.105469 373.976562 47.617188 373.558594 45.765625 374.644531 C 46.738281 374.726562 47.71875 374.78125 48.691406 374.828125 C 48.660156 375.042969 48.605469 375.476562 48.578125 375.691406 C 47.601562 375.660156 46.527344 375.476562 45.75 376.242188 C 46.75 376.382812 47.753906 376.492188 48.753906 376.597656 C 48.714844 378.136719 48.636719 379.679688 48.503906 381.21875 C 47.753906 381.308594 46.960938 381.265625 46.234375 381.496094 C 45.253906 382.191406 44.722656 383.304688 44.230469 384.367188 C 42.144531 384.511719 40.054688 384.589844 37.964844 384.441406 C 37.863281 384.703125 37.667969 385.230469 37.566406 385.492188 C 34.296875 387.214844 29.90625 385.441406 29.597656 388.023438 C 27.988281 395.660156 30.308594 397.621094 28.90625 401.742188 C 28.601562 409.652344 29.46875 405.476562 26.90625 411.820312 C 26.359375 410.457031 26.023438 409.007812 26.273438 407.539062 C 25.46875 407.636719 24.667969 407.738281 23.867188 407.839844 C 23.601562 408.355469 23.335938 408.882812 23.066406 409.40625 C 23.335938 410.003906 23.601562 410.609375 23.859375 411.21875 C 23.128906 411.300781 22.394531 411.386719 21.664062 411.472656 C 22.136719 411.347656 23.082031 411.089844 23.554688 410.960938 C 22.957031 410.601562 22.367188 410.25 21.773438 409.894531 C 21.632812 410.316406 21.351562 411.152344 21.214844 411.574219 C 21.152344 410.78125 21.085938 409.988281 21.027344 409.203125 C 18.816406 409.160156 16.597656 409.140625 14.386719 409.210938 C 13.875 410.390625 13.179688 411.46875 12.328125 412.429688 C 12.058594 412.199219 11.527344 411.734375 11.261719 411.503906 C 10.601562 411.6875 9.9375 411.882812 9.277344 412.070312 C 9.316406 411.609375 9.359375 411.152344 9.402344 410.695312 C 8.390625 409.367188 7.640625 407.824219 6.417969 406.664062 C 5.441406 405.738281 4.46875 404.789062 3.769531 403.632812 C 3.003906 405.101562 1.691406 406.125 0.507812 407.238281 L 0.507812 425.589844 L 674.507812 425.589844 L 674.507812 368.371094 C 673.007812 368.417969 671.519531 368.457031 670.027344 368.507812 Z M 38.558594 385.210938 C 40.140625 384.824219 41.773438 384.789062 43.394531 384.808594 C 43.410156 385.03125 43.449219 385.46875 43.46875 385.691406 C 41.832031 385.566406 40.09375 385.917969 38.558594 385.210938 Z M 85.808594 339.328125 C 85.792969 338.964844 85.769531 338.238281 85.757812 337.871094 C 87.308594 337.832031 88.863281 337.859375 90.398438 338.078125 C 89.871094 340.1875 87.375 339.105469 85.808594 339.328125 Z M 104.804688 407.3125 C 103.976562 407.59375 103.699219 407.332031 103.96875 406.523438 C 104.800781 406.238281 105.078125 406.5 104.804688 407.3125 Z M 106.160156 406.488281 C 106.605469 405.957031 107.84375 405.953125 108.003906 406.75 C 107.816406 407.628906 105.753906 407.523438 106.160156 406.488281 Z M 109.839844 406.820312 C 109.40625 407.382812 107.757812 407.042969 108.425781 406.210938 C 108.851562 405.648438 110.519531 405.984375 109.839844 406.820312 Z M 111.15625 406.386719 C 111.40625 405.644531 112.839844 405.667969 113.046875 406.441406 C 112.773438 407.167969 111.378906 407.125 111.15625 406.386719 Z M 117.207031 406.339844 C 116.390625 406.617188 116.089844 406.347656 116.308594 405.542969 C 117.128906 405.257812 117.421875 405.523438 117.207031 406.339844 Z M 326.660156 387.246094 C 327.371094 386.695312 327.929688 387.980469 327.300781 388.394531 C 326.570312 388.960938 326.003906 387.652344 326.660156 387.246094 Z M 332.125 390.699219 C 330.640625 390.679688 329.167969 390.457031 327.777344 389.933594 C 327.402344 390.042969 326.648438 390.261719 326.273438 390.375 C 326.753906 388.492188 328.996094 388.078125 330.28125 386.859375 C 329.066406 386.5625 327.859375 386.28125 326.667969 385.933594 C 328.164062 385.023438 329.96875 385.535156 331.613281 385.230469 C 331.277344 386.191406 330.386719 386.730469 329.683594 387.402344 C 330.253906 387.351562 331.394531 387.246094 331.960938 387.195312 C 332.664062 388.226562 332.175781 389.546875 332.125 390.699219 Z M 334.6875 384.261719 C 334.699219 385.078125 334.707031 385.902344 334.71875 386.722656 C 334.289062 386.558594 333.429688 386.234375 333 386.066406 C 333.265625 385.21875 333.953125 384.695312 334.6875 384.261719 Z M 333.5 390.875 C 333.164062 389.632812 333.0625 388.34375 333.53125 387.121094 C 333.820312 387.136719 334.40625 387.171875 334.699219 387.183594 C 334.683594 388.394531 334.703125 389.597656 334.761719 390.804688 C 334.449219 390.824219 333.816406 390.859375 333.5 390.875 Z M 411.828125 387.65625 C 411.988281 386.890625 411.773438 385.847656 412.675781 385.492188 C 413.644531 384.832031 414.890625 385.089844 416 384.9375 C 416.015625 385.691406 416.035156 386.449219 416.058594 387.203125 C 414.644531 387.335938 413.238281 387.515625 411.828125 387.65625 Z M 422.207031 388.359375 C 420.308594 388.34375 418.425781 388.039062 416.578125 387.636719 C 416.5 386.226562 416.476562 384.8125 416.226562 383.429688 C 419.460938 381.554688 422.449219 379.191406 425.902344 377.742188 C 424.628906 381.265625 423.054688 384.683594 422.207031 388.359375 Z M 433.726562 388.152344 C 433.792969 387.300781 433.597656 386.535156 433.144531 385.851562 C 433.15625 386.4375 433.1875 387.605469 433.195312 388.1875 C 432.980469 388.507812 432.773438 388.835938 432.570312 389.160156 L 433.546875 389.34375 C 433.136719 389.847656 432.660156 390.015625 432.117188 389.851562 C 432.203125 389.261719 432.351562 388.679688 432.488281 388.101562 C 430.847656 388.105469 432.09375 386.027344 432.128906 385.074219 C 433.09375 385.421875 433.824219 385.121094 434.308594 384.167969 C 434.453125 385.566406 434.488281 386.96875 434.5 388.371094 C 434.308594 388.316406 433.917969 388.207031 433.726562 388.152344 Z M 435.085938 382.820312 C 434.046875 383.09375 433.210938 383.714844 432.433594 384.421875 C 432.367188 384.066406 432.238281 383.351562 432.171875 382.988281 C 432.492188 383.070312 433.140625 383.21875 433.460938 383.292969 C 433.300781 381.769531 433.710938 380.261719 434.992188 379.316406 C 435.078125 380.476562 435.113281 381.644531 435.085938 382.820312 Z M 437.199219 381.464844 C 436.632812 381.675781 436.070312 381.890625 435.511719 382.105469 C 435.496094 380.390625 435.015625 377.480469 437.394531 377.1875 C 437.5 376.082031 438.023438 375.113281 438.835938 374.363281 C 439.023438 376.335938 439.125 378.316406 439.148438 380.308594 C 438.28125 380.015625 437.402344 379.816406 436.511719 379.699219 C 436.433594 380.378906 436.667969 380.964844 437.199219 381.464844 Z M 440.96875 378.914062 C 440.628906 379.105469 439.949219 379.488281 439.609375 379.679688 C 439.144531 377.027344 438.382812 373.636719 440.863281 371.726562 C 441.113281 374.105469 441.351562 376.542969 440.96875 378.914062 Z M 441.996094 380.261719 C 441.652344 377.820312 441.570312 375.355469 441.21875 372.917969 C 441.003906 371.464844 441.671875 369.945312 443.074219 369.382812 C 443.207031 372.144531 443.152344 374.914062 442.964844 377.675781 C 443.128906 378.40625 443.210938 379.152344 443.320312 379.90625 C 442.875 380.019531 442.433594 380.140625 441.996094 380.261719 Z M 488.964844 356.042969 C 486.984375 354.777344 484.859375 353.71875 482.988281 352.285156 C 482.992188 352.089844 483 351.699219 483.003906 351.503906 C 485.195312 349.847656 487.476562 348.253906 489.929688 347 C 492.15625 347.714844 494.117188 349.050781 496.199219 350.105469 C 494.207031 352.511719 491.449219 354.167969 488.964844 356.042969 Z M 495.78125 351.527344 C 495.636719 354.121094 494.792969 356.636719 493.707031 358.972656 C 492.285156 358.148438 490.898438 357.289062 489.558594 356.34375 C 491.5 354.574219 493.625 353.023438 495.78125 351.527344 Z M 479.917969 352.777344 C 478.308594 354.246094 476.445312 355.429688 474.484375 356.378906 C 473.570312 354.042969 472.878906 351.632812 472.132812 349.242188 C 475.902344 347.207031 473.089844 347.140625 480.828125 351.574219 C 480.867188 351.847656 480.941406 352.390625 480.984375 352.660156 C 481.761719 352.195312 482.523438 352.722656 483.183594 353.082031 C 484.933594 354.132812 486.675781 355.222656 488.335938 356.425781 C 486.046875 358.441406 483.609375 360.296875 481.144531 362.082031 C 480.5 362.742188 479.6875 362.277344 479.128906 361.789062 C 477.441406 360.402344 475.339844 359.191406 474.75 356.9375 C 476.679688 355.699219 478.398438 354.007812 480.648438 353.363281 C 480.402344 353.160156 480.160156 352.964844 479.917969 352.777344 Z M 470.578125 341.53125 C 471.925781 340.660156 473.316406 339.796875 474.8125 339.207031 C 477.203125 339.683594 479.289062 341.210938 481.367188 342.441406 C 481.292969 342.761719 481.148438 343.40625 481.074219 343.726562 C 481.414062 343.550781 482.101562 343.191406 482.441406 343.015625 C 484.601562 343.902344 486.699219 344.992188 488.679688 346.222656 C 488.761719 346.382812 488.921875 346.695312 489.007812 346.855469 C 486.734375 348.488281 484.453125 350.214844 481.933594 351.433594 C 479.492188 350.558594 477.417969 348.859375 475.3125 347.382812 C 477 346.089844 478.941406 345.160156 480.582031 343.804688 C 478.539062 344.640625 476.875 346.152344 474.847656 347 C 471.726562 345.917969 468.523438 342.699219 470.578125 341.53125 Z M 469.476562 341.433594 C 468.726562 339.40625 467.933594 337.371094 467.691406 335.210938 C 469.882812 336.101562 472.0625 337.085938 474.011719 338.433594 C 473.996094 338.609375 473.957031 338.96875 473.9375 339.144531 C 472.578125 340.128906 471.109375 340.996094 469.476562 341.433594 Z M 475.894531 338.78125 C 478.121094 336.800781 480.9375 335.671875 483.457031 334.101562 C 485.667969 335.160156 488.058594 335.921875 490.089844 337.328125 C 489.460938 338.402344 483.785156 341.71875 482.457031 342.238281 C 480.171875 341.28125 478.042969 339.992188 475.894531 338.78125 Z M 483.335938 342.382812 C 485.8125 340.679688 488.417969 339.1875 490.96875 337.601562 C 493.203125 338.585938 495.519531 339.429688 497.570312 340.789062 C 495.214844 342.808594 492.628906 344.535156 490.015625 346.195312 C 487.742188 345.011719 485.253906 344.128906 483.335938 342.382812 Z M 492.074219 336.929688 C 500.628906 330.855469 503.078125 330.007812 499.347656 339.722656 C 499.132812 339.847656 498.710938 340.101562 498.5 340.226562 C 496.28125 339.339844 493.75 338.71875 492.074219 336.929688 Z M 500.761719 324.222656 C 500.90625 332.035156 501.339844 330.171875 499.609375 331.492188 C 494.808594 329.410156 493.667969 329.363281 493.441406 328.378906 C 495.742188 326.785156 498.199219 325.371094 500.761719 324.222656 Z M 496.179688 330.609375 C 496.890625 331.113281 498.328125 331.128906 498.414062 332.171875 C 490.46875 337.933594 491.199219 336.929688 489.578125 336.339844 C 487.796875 335.558594 486.039062 334.730469 484.332031 333.800781 C 486.375 332.222656 488.707031 331.078125 490.910156 329.75 C 492.605469 328.457031 494.507812 330.066406 496.179688 330.609375 Z M 465.464844 317.839844 C 468.21875 318.941406 488.820312 327.40625 491.429688 328.808594 C 489.613281 330.296875 487.46875 331.28125 485.5 332.542969 C 483.210938 333.847656 484.808594 334.5 466.074219 325.144531 C 465.125 324.753906 465.3125 323.652344 465.324219 322.839844 C 465.441406 321.167969 464.835938 319.460938 465.464844 317.839844 Z M 465.582031 325.757812 C 468.199219 326.742188 481.316406 332.851562 482.527344 333.878906 C 480.765625 335.597656 478.40625 336.5625 476.3125 337.828125 C 475.085938 338.753906 473.777344 337.667969 472.664062 337.117188 C 470.886719 336.007812 468.988281 335.117188 467.242188 333.960938 C 465.472656 331.652344 465.351562 328.558594 465.582031 325.757812 Z M 467.878906 383.007812 C 467.472656 379.496094 467.585938 375.957031 467.808594 372.4375 C 468.007812 372.597656 468.421875 372.914062 468.621094 373.074219 C 468.734375 376.183594 468.804688 379.316406 468.804688 382.421875 C 468.574219 382.566406 468.109375 382.863281 467.878906 383.007812 Z M 468.726562 370.632812 C 468.511719 371.285156 468.195312 371.878906 467.503906 372.097656 C 467.398438 370.492188 467.449219 368.894531 467.585938 367.296875 C 468.796875 369.054688 468.84375 369.183594 469.578125 370.5 C 469.363281 370.535156 468.9375 370.601562 468.726562 370.632812 Z M 469.789062 382.613281 C 469.734375 378.796875 469.382812 374.972656 469.824219 371.167969 C 470.074219 371.082031 470.582031 370.917969 470.832031 370.832031 C 470.835938 374.757812 471.019531 378.679688 471.058594 382.601562 C 470.742188 382.609375 470.105469 382.609375 469.789062 382.613281 Z M 474.109375 347.40625 C 473.355469 347.875 472.597656 348.316406 471.820312 348.726562 C 471.574219 347.726562 471.398438 346.714844 471.304688 345.699219 C 472.28125 346.183594 473.210938 346.765625 474.109375 347.40625 Z M 473.007812 382.167969 C 472.71875 382.132812 472.140625 382.066406 471.851562 382.03125 C 471.75 378.8125 471.824219 375.59375 471.621094 372.382812 C 472.472656 372.757812 473.265625 373.449219 473.054688 374.488281 C 473.039062 377.042969 473.140625 379.609375 473.007812 382.167969 Z M 473.792969 374.707031 C 474.082031 374.898438 474.664062 375.273438 474.953125 375.464844 C 475.140625 376.96875 475.265625 378.527344 475.070312 380.042969 C 474.816406 380.238281 474.304688 380.625 474.046875 380.8125 C 473.917969 378.777344 473.730469 376.746094 473.792969 374.707031 Z M 475.035156 380.945312 C 475.109375 381.566406 475.160156 382.191406 475.1875 382.824219 C 473.882812 383.054688 473.933594 381.269531 475.035156 380.945312 Z M 476.074219 382.878906 C 476.253906 380.964844 476.195312 379.027344 476.464844 377.132812 C 476.691406 377.851562 476.996094 378.613281 477.261719 379.335938 C 477.285156 380.527344 477.347656 381.726562 477.378906 382.925781 C 477.050781 382.910156 476.398438 382.890625 476.074219 382.878906 Z M 477.054688 361.039062 C 477.859375 361.699219 479.472656 362.109375 479.457031 363.378906 C 477.96875 364.914062 477.125 362.164062 477.054688 361.039062 Z M 479.308594 386.328125 C 478.9375 384.296875 478.15625 382.351562 478.042969 380.28125 C 480.429688 381.210938 479.464844 384.371094 479.308594 386.328125 Z M 481.183594 386.234375 C 480.472656 386.765625 479.914062 385.46875 480.484375 385.035156 C 481.1875 384.492188 481.746094 385.785156 481.183594 386.234375 Z M 483.128906 371.789062 C 481.515625 369.507812 480.148438 367.058594 478.640625 364.707031 C 479.195312 364.261719 479.757812 363.820312 480.34375 363.398438 C 482.546875 365.269531 485.105469 366.757812 487.046875 368.921875 C 486.113281 370.03125 485.058594 371.046875 483.902344 371.910156 C 483.707031 371.878906 483.320312 371.820312 483.128906 371.789062 Z M 486.011719 375.921875 C 484.953125 375.601562 484.484375 374.054688 483.945312 373.082031 C 484.609375 371.640625 485.996094 370.683594 487.1875 369.691406 C 487.867188 369.027344 488.558594 370.0625 489.148438 370.363281 C 488.117188 372.222656 487.316406 374.226562 486.011719 375.921875 Z M 489.117188 369.460938 C 488.90625 369.234375 488.488281 368.777344 488.28125 368.550781 C 489.035156 367.875 489.757812 367.03125 490.847656 366.941406 C 490.351562 367.804688 490.253906 369.25 489.117188 369.460938 Z M 487.847656 368.226562 C 486.867188 368.21875 481.28125 363.347656 480.851562 362.957031 C 483.492188 360.871094 486.003906 358.53125 488.9375 356.871094 C 490.585938 357.679688 492.351562 358.511719 493.617188 359.878906 C 492.671875 363.503906 492.457031 364.542969 487.847656 368.226562 Z M 492.59375 387.902344 C 492.25 387.78125 491.914062 387.667969 491.589844 387.550781 C 491.554688 385.679688 491.46875 383.816406 491.488281 381.945312 C 491.863281 381.820312 492.242188 381.695312 492.628906 381.582031 C 492.605469 383.6875 492.582031 385.792969 492.59375 387.902344 Z M 494.351562 387.992188 C 493.1875 386.542969 493.414062 381.480469 493.503906 379.628906 C 494.015625 379.371094 494.527344 379.105469 495.050781 378.84375 C 494.636719 381.886719 494.96875 384.964844 494.351562 387.992188 Z M 496.238281 387.671875 C 494.410156 384.390625 495.660156 380.835938 495.285156 377.714844 C 495.835938 377.375 496.398438 377.0625 496.984375 376.773438 C 496.65625 381.0625 496.945312 381.035156 496.238281 387.671875 Z M 497.566406 385.976562 C 497.476562 383 497.003906 380.03125 497.304688 377.054688 C 498.753906 377.484375 498.390625 377.765625 498.621094 385.980469 C 498.359375 385.976562 497.828125 385.976562 497.566406 385.976562 Z M 497.121094 375.539062 C 497.453125 375.011719 497.792969 374.492188 498.140625 373.980469 C 498.375 374.808594 498.390625 375.675781 498.375 376.542969 C 497.941406 376.207031 497.53125 375.875 497.121094 375.539062 Z M 496.703125 349.460938 C 494.726562 348.800781 492.867188 347.816406 491.109375 346.71875 C 491.085938 346.574219 491.042969 346.277344 491.015625 346.132812 C 493.5 344.257812 496.042969 342.417969 498.824219 341 C 498.5 343.90625 497.410156 346.644531 496.703125 349.460938 Z M 500.089844 371.671875 C 500.164062 372.964844 500.144531 374.261719 500.21875 375.554688 C 500.445312 374.011719 499.992188 372.25 501.007812 370.921875 C 501.207031 373.234375 501.097656 375.554688 501.308594 377.867188 C 500.65625 377.800781 500.023438 377.742188 499.386719 377.675781 C 499.566406 375.699219 498.449219 373.25 500.089844 371.671875 Z M 500.023438 387.996094 C 499.519531 385.730469 499.449219 383.335938 499.414062 380.398438 C 499.300781 379.804688 499.652344 379.324219 499.980469 378.882812 C 500.320312 379.464844 500.765625 379.957031 501.3125 380.359375 C 501.316406 381.910156 501.308594 383.464844 501.324219 385.023438 C 501.027344 385.28125 500.4375 385.796875 500.140625 386.050781 C 500.703125 386.707031 500.722656 387.394531 500.023438 387.996094 Z M 602.410156 371.230469 C 602.316406 371.945312 602.242188 372.667969 602.175781 373.394531 C 575.238281 363.03125 552.230469 353.320312 525.25 338.167969 C 524.972656 335.992188 525.074219 333.757812 525.445312 331.589844 C 531.546875 334.175781 595.933594 363.015625 601.898438 365.734375 C 602.214844 366.496094 602.589844 367.242188 603.089844 367.921875 C 603.046875 369.042969 603.175781 370.296875 602.410156 371.230469 Z M 602.511719 377.371094 C 601.699219 376.984375 580.386719 366.722656 578.96875 365.304688 C 586.9375 367.929688 594.511719 371.664062 602.382812 374.582031 C 602.589844 375.496094 602.59375 376.4375 602.511719 377.371094 Z M 546.539062 350.554688 C 539.933594 348.363281 533.617188 345.367188 527.148438 342.808594 C 525.695312 342.363281 525.851562 340.628906 525.714844 339.429688 C 530.039062 341.171875 533.917969 343.808594 538.128906 345.792969 C 540.890625 347.449219 544.125 348.363281 546.539062 350.554688 Z M 524.882812 369.90625 C 525.214844 370.398438 525.699219 370.859375 525.660156 371.515625 C 525.796875 373.875 525.753906 376.257812 525.535156 378.613281 C 525.039062 378 524.664062 377.292969 524.757812 376.488281 C 524.753906 374.296875 524.578125 372.085938 524.882812 369.90625 Z M 525.976562 386.546875 C 525.179688 386.835938 524.902344 386.558594 525.148438 385.714844 C 525.925781 385.429688 526.207031 385.707031 525.976562 386.546875 Z M 525.9375 384.804688 C 525.929688 383.285156 525.945312 381.765625 525.820312 380.253906 C 525.660156 381.917969 525.761719 383.585938 525.707031 385.253906 C 524.140625 383.855469 525.234375 381.367188 524.917969 379.519531 C 525.484375 379.855469 526.046875 380.191406 526.632812 380.519531 C 526.632812 381.976562 526.636719 383.441406 526.667969 384.898438 Z M 526.558594 378.316406 L 525.859375 378.285156 C 526.113281 375.859375 525.488281 373.292969 526.402344 370.976562 C 526.988281 373.390625 526.574219 375.871094 526.558594 378.316406 Z M 526.953125 372.179688 C 528.152344 372.878906 527.605469 374.472656 527.835938 375.621094 C 527.902344 375.058594 528.03125 373.929688 528.097656 373.371094 C 529.425781 375.160156 528.4375 377.566406 528.652344 379.628906 L 527.925781 379.621094 C 527.90625 378.855469 527.886719 378.085938 527.871094 377.324219 C 527.757812 378.136719 527.644531 378.9375 527.535156 379.75 C 526.328125 377.46875 527.214844 374.671875 526.953125 372.179688 Z M 528.683594 349.773438 C 533.46875 352.074219 537.808594 355.21875 542.449219 357.800781 C 542.421875 358.652344 542.386719 359.503906 542.351562 360.359375 C 538.296875 358.546875 534.214844 356.765625 530.25 354.777344 C 529.101562 353.457031 529.011719 351.449219 528.683594 349.773438 Z M 528.632812 384.273438 C 528.144531 384.523438 527.644531 384.757812 527.148438 384.980469 C 526.863281 383.65625 526.996094 382.300781 527.019531 380.964844 C 527.25 380.984375 527.707031 381.023438 527.9375 381.042969 C 527.90625 381.320312 527.835938 381.875 527.808594 382.152344 C 528.523438 382.222656 529.246094 382.292969 529.976562 382.367188 C 530 383.285156 530.011719 384.207031 530.023438 385.128906 C 529.550781 384.84375 529.089844 384.558594 528.632812 384.273438 Z M 530.613281 379.816406 C 530.199219 380.152344 529.78125 380.476562 529.363281 380.792969 C 528.488281 378.777344 529.039062 376.511719 529.101562 374.398438 C 529.636719 375.222656 530.089844 376.101562 530.550781 376.980469 C 530.308594 377.285156 529.828125 377.890625 529.585938 378.195312 L 530.683594 377.921875 C 530.660156 378.554688 530.636719 379.179688 530.613281 379.816406 Z M 532.019531 384.949219 C 531.246094 385.539062 530.59375 384.121094 531.261719 383.652344 C 532.03125 383.054688 532.636719 384.457031 532.019531 384.949219 Z M 535.347656 384.253906 C 535.339844 383.820312 535.3125 382.960938 535.300781 382.527344 C 534.902344 382.730469 534.105469 383.125 533.710938 383.320312 C 533.617188 383.199219 533.433594 382.964844 533.34375 382.84375 C 533.203125 382.097656 533.507812 380.800781 532.320312 381.199219 L 531.679688 382.164062 C 530.53125 380.613281 531.15625 378.414062 530.996094 376.601562 C 531.824219 377.371094 532.285156 378.417969 532.898438 379.355469 C 533.183594 379.355469 533.75 379.363281 534.03125 379.363281 C 534.050781 380.328125 534.070312 381.285156 534.097656 382.246094 C 534.777344 382.277344 535.460938 382.316406 536.15625 382.359375 C 536.195312 383.003906 536.242188 383.644531 536.296875 384.296875 C 536.0625 384.289062 535.585938 384.269531 535.347656 384.253906 Z M 533.878906 364.035156 C 535.675781 364.394531 542.480469 370.109375 543.964844 371.59375 C 543.722656 372.101562 543.492188 372.613281 543.273438 373.125 C 543.042969 373.152344 542.570312 373.214844 542.335938 373.246094 C 539.265625 371.476562 537.238281 371.847656 533.878906 364.035156 Z M 544.738281 371.71875 C 547.300781 373.882812 550.160156 375.695312 552.566406 378.042969 C 550.851562 377.863281 545.972656 375.664062 543.296875 373.089844 C 543.753906 372.617188 544.234375 372.15625 544.738281 371.71875 Z M 559.023438 386.847656 C 558.230469 387.089844 557.972656 386.789062 558.242188 385.957031 C 559.023438 385.710938 559.285156 386.007812 559.023438 386.847656 Z M 558.960938 383.996094 C 559.371094 386.058594 556.847656 385.6875 555.542969 385.722656 C 555.539062 385.320312 555.523438 384.523438 555.519531 384.121094 C 554.675781 384.171875 554.421875 384.707031 554.742188 385.742188 C 553.3125 385.550781 552.09375 386.128906 551.132812 387.140625 C 551.296875 386.945312 551.628906 386.554688 551.789062 386.359375 C 551.628906 385.574219 551.460938 384.796875 551.328125 384.015625 C 550.539062 384.257812 549.824219 384.609375 549.324219 385.269531 C 548.347656 385.847656 547.265625 386.203125 546.136719 385.925781 C 546.257812 385.511719 546.382812 385.097656 546.519531 384.6875 C 544.347656 383.355469 544.601562 380.449219 544.453125 378.238281 C 543.703125 378.0625 542.96875 377.886719 542.230469 377.730469 C 541.207031 376.246094 540.148438 374.746094 539.703125 372.972656 C 540.691406 373.402344 541.785156 373.730469 542.625 374.453125 C 542.714844 375.714844 542.863281 376.964844 544.265625 377.441406 C 544.4375 376.808594 544.613281 376.175781 544.796875 375.550781 C 549.90625 378.230469 555.09375 380.796875 560.027344 383.796875 Z M 544.4375 370.496094 C 544.035156 368.789062 543.535156 367.097656 543.324219 365.355469 C 543.332031 366.367188 543.351562 367.382812 543.363281 368.402344 C 543.0625 368.535156 542.453125 368.808594 542.152344 368.941406 C 539.445312 366.96875 536.867188 364.828125 534.179688 362.832031 C 531.96875 361.363281 531.089844 358.605469 530.710938 356.113281 C 534.527344 357.246094 537.992188 359.296875 541.640625 360.871094 C 543.539062 361.347656 541.636719 364.425781 543.617188 364.625 C 544.386719 364.230469 544.03125 362.996094 544.351562 362.285156 C 547.558594 363.582031 570.476562 373.46875 583.886719 383.078125 C 577.65625 383.53125 571.410156 383.539062 565.167969 383.78125 C 561.832031 384.261719 558.394531 381.636719 544.4375 370.496094 Z M 543.910156 359.09375 C 545.816406 359.632812 553.464844 364.355469 554.917969 365.5625 C 552.910156 365.523438 551.226562 364.339844 549.429688 363.613281 C 547.640625 362.738281 545.679688 362.140625 544.066406 360.953125 C 544.023438 360.492188 543.949219 359.558594 543.910156 359.09375 Z M 565.242188 384.492188 C 565.710938 383.308594 567.488281 384.175781 568.492188 383.90625 C 568.492188 385.625 565.667969 386.070312 565.242188 384.492188 Z M 570.171875 385.136719 C 569.335938 383.238281 572.148438 384.082031 573.183594 384 C 573.253906 384.324219 573.390625 384.96875 573.460938 385.289062 C 572.359375 385.285156 571.253906 385.324219 570.171875 385.136719 Z M 574.527344 385.101562 C 573.707031 383.179688 576.921875 384.085938 577.980469 383.792969 C 577.449219 385.289062 575.839844 385.28125 574.527344 385.101562 Z M 579.742188 384.988281 C 579.628906 384.5625 579.53125 384.140625 579.441406 383.726562 C 580.769531 383.726562 582.746094 383 583.171875 384.777344 C 582.027344 384.902344 580.878906 384.953125 579.742188 384.988281 Z M 583.964844 384.757812 C 582.949219 383.375 585.417969 383.65625 586.128906 383.953125 C 585.792969 384.949219 584.804688 384.902344 583.964844 384.757812 Z M 584.902344 382.386719 C 582.773438 381.042969 580.394531 380.027344 578.605469 378.210938 C 581.484375 378.808594 583.933594 380.507812 586.589844 381.671875 C 587.261719 381.890625 587.703125 382.402344 587.921875 383.089844 C 586.863281 383.109375 585.785156 383.003906 584.902344 382.386719 Z M 589.476562 384.6875 C 589.453125 384.382812 589.410156 383.769531 589.382812 383.464844 C 590.296875 383.589844 591.210938 383.765625 592.097656 384.050781 C 591.414062 384.804688 590.363281 384.589844 589.476562 384.6875 Z M 602.527344 382.351562 C 601.699219 382.589844 600.847656 382.699219 600.019531 382.863281 C 600.621094 383.007812 601.214844 383.136719 601.839844 383.273438 C 601.9375 383.53125 602.128906 384.035156 602.222656 384.289062 C 601.070312 384.226562 599.832031 384.523438 598.757812 384.027344 C 598.867188 383.6875 599.082031 383.007812 599.195312 382.667969 C 598.199219 382.707031 597.207031 382.742188 596.230469 382.765625 C 596.378906 383.109375 596.691406 383.796875 596.839844 384.136719 C 596.105469 384.21875 595.367188 384.199219 594.644531 384.074219 C 594.820312 383.75 595.171875 383.121094 595.347656 382.800781 C 591.871094 382.746094 594.863281 384.375 574.035156 374.699219 C 564.542969 370.007812 574.398438 376.371094 544.066406 357.929688 C 543.84375 357.164062 544.175781 356.003906 543.207031 355.703125 C 542.691406 355.96875 542.191406 356.253906 541.699219 356.554688 C 537.230469 353.941406 532.792969 351.261719 528.394531 348.53125 C 527.289062 347.191406 527.199219 345.273438 526.871094 343.628906 C 561.503906 356.871094 570.953125 362.628906 599.671875 377.070312 C 602.351562 378.421875 601.699219 378.058594 603.277344 379.742188 L 602.523438 379.757812 C 602.527344 380.617188 602.574219 381.484375 602.527344 382.351562 Z M 604.425781 383.855469 C 604.195312 382.558594 605.992188 383.226562 606.710938 382.933594 C 606.308594 383.816406 605.328125 384.660156 604.425781 383.855469 Z M 608.65625 382.574219 C 607.242188 382.335938 605.808594 382.484375 604.394531 382.449219 C 604.292969 381.554688 604.199219 380.664062 604.128906 379.777344 C 606.671875 380.117188 609.949219 382.039062 610.628906 384.046875 C 609.585938 383.667969 608.292969 384.679688 608.65625 382.574219 Z M 604.410156 378.28125 C 603.902344 377.46875 604.136719 376.398438 603.96875 375.5 C 606.25 376.0625 608.335938 377.179688 610.53125 378 C 610.59375 379.128906 610.617188 380.257812 610.636719 381.390625 C 608.527344 380.433594 606.351562 379.558594 604.410156 378.28125 Z M 610.398438 370.746094 C 610.421875 372.753906 610.546875 374.746094 610.542969 376.753906 C 608.3125 376.054688 606.160156 375.148438 604.023438 374.214844 C 604.382812 371.648438 602.734375 369.007812 604.046875 366.597656 C 606.554688 367.71875 609.195312 368.628906 611.410156 370.304688 C 611.15625 370.417969 610.652344 370.636719 610.398438 370.746094 Z M 611.617188 361.800781 C 611.058594 361.605469 610.511719 361.398438 609.980469 361.1875 C 609.921875 362.785156 609.808594 364.410156 610.375 365.945312 C 610.332031 366.460938 610.242188 366.972656 610.105469 367.472656 C 610.527344 367.132812 610.976562 366.824219 611.460938 366.546875 C 611.8125 367.648438 610.386719 367.628906 609.859375 368.140625 C 607.929688 367.25 605.894531 366.578125 604.03125 365.542969 C 603.394531 363.367188 604.390625 360.898438 603.355469 358.839844 C 603.050781 358.847656 602.4375 358.863281 602.136719 358.871094 C 602.117188 360.816406 602.273438 362.757812 602.261719 364.703125 C 598.863281 363.304688 532.914062 334.390625 525.355469 330.421875 C 525.25 328.3125 525.429688 326.210938 525.601562 324.109375 C 527.550781 324.597656 609.503906 357.882812 609.890625 358.050781 C 609.941406 358.890625 609.992188 359.738281 610.066406 360.585938 C 610.152344 359.738281 610.195312 358.882812 610.292969 358.039062 C 611.988281 358.632812 611.675781 360.355469 611.617188 361.800781 Z M 610.726562 365.527344 C 611.863281 364.96875 611.1875 367.183594 610.699219 365.929688 Z M 610.4375 364.332031 L 610.4375 363.988281 C 610.613281 363.988281 610.96875 363.984375 611.144531 363.984375 L 611.246094 364.382812 C 611.042969 364.367188 610.636719 364.339844 610.4375 364.332031 Z M 610.125 363.132812 C 610.292969 362.863281 610.628906 362.316406 610.792969 362.039062 C 610.957031 362.3125 611.300781 362.851562 611.464844 363.121094 C 611.019531 363.582031 610.574219 363.589844 610.125 363.132812 Z M 612.082031 361.261719 C 611.722656 360.632812 611.699219 359.765625 611.992188 359.113281 C 612.703125 359.253906 612.871094 361.152344 612.082031 361.261719 Z M 625.886719 358.390625 C 625.011719 358.355469 624.996094 356.871094 625.894531 356.867188 C 626.746094 356.890625 626.765625 358.394531 625.886719 358.390625 Z M 630.015625 360.378906 C 629.351562 360.300781 629.269531 359.121094 629.96875 359.042969 C 630.617188 359.09375 630.703125 360.308594 630.015625 360.378906 Z M 630.296875 358.246094 C 629.550781 358.796875 628.808594 357.492188 629.449219 356.976562 C 630.179688 356.402344 630.929688 357.730469 630.296875 358.246094 Z M 631.8125 360.941406 C 631 359.878906 631.164062 358.476562 631.167969 357.226562 C 631.410156 357.066406 631.886719 356.742188 632.125 356.582031 C 632.085938 358.035156 632.046875 359.5 631.8125 360.941406 Z M 643.203125 381.964844 C 644.332031 381.976562 645.464844 382.023438 646.605469 382.140625 C 645.847656 383.230469 643.503906 383.554688 643.203125 381.964844 Z M 634.996094 378.902344 C 634.570312 375.285156 634.582031 371.621094 634.488281 367.980469 C 638.59375 369.394531 642.703125 370.933594 646.613281 372.824219 C 647.121094 375.566406 646.84375 378.40625 647.011719 381.1875 C 643.09375 381.441406 638.964844 382.300781 634.996094 378.902344 Z M 661.386719 356.472656 C 660.589844 356.761719 660.316406 356.484375 660.554688 355.648438 C 661.339844 355.359375 661.613281 355.628906 661.386719 356.472656 Z M 666.488281 356.898438 L 666.222656 357.15625 C 665.535156 357.398438 665.503906 358.246094 665.085938 358.742188 C 664.792969 357.613281 664.597656 356.460938 664.488281 355.308594 C 665.273438 354.679688 665.328125 355.949219 665.78125 356.265625 C 665.996094 355.984375 666.429688 355.425781 666.644531 355.148438 C 666.605469 355.582031 666.527344 356.460938 666.488281 356.898438 Z M 667.507812 357.417969 C 667.515625 357.644531 667.445312 359.136719 666.984375 358.410156 C 666.710938 357.488281 666.710938 356.394531 667.144531 355.523438 C 667.800781 355.652344 667.375 356.902344 667.507812 357.417969 Z M 667.507812 357.417969 "/></g><path style=" stroke:none;fill-rule:nonzero;fill:rgb(85.099792%,85.099792%,85.099792%);fill-opacity:1;" d="M 613.3125 360.066406 C 612.488281 361.539062 615.015625 360.164062 613.3125 360.066406 "/><path style=" stroke:none;fill-rule:nonzero;fill:rgb(85.099792%,85.099792%,85.099792%);fill-opacity:1;" d="M 614.390625 360.679688 C 614.667969 360.972656 614.667969 360.972656 614.390625 360.679688 "/><path style=" stroke:none;fill-rule:nonzero;fill:rgb(85.099792%,85.099792%,85.099792%);fill-opacity:1;" d="M 529.5625 385.625 C 528.824219 387.160156 531.222656 385.65625 529.5625 385.625 "/><path style=" stroke:none;fill-rule:nonzero;fill:rgb(85.099792%,85.099792%,85.099792%);fill-opacity:1;" d="M 533.675781 385.46875 C 532.953125 387.003906 535.324219 385.507812 533.675781 385.46875 "/><path style=" stroke:none;fill-rule:nonzero;fill:rgb(85.099792%,85.099792%,85.099792%);fill-opacity:1;" d="M 570.207031 386.085938 C 569.410156 387.574219 571.863281 386.21875 570.207031 386.085938 "/><path style=" stroke:none;fill-rule:nonzero;fill:rgb(85.099792%,85.099792%,85.099792%);fill-opacity:1;" d="M 410.574219 387.089844 C 410.617188 388.75 412.089844 386.34375 410.574219 387.089844 "/><path style=" stroke:none;fill-rule:nonzero;fill:rgb(85.099792%,85.099792%,85.099792%);fill-opacity:1;" d="M 159.558594 390.484375 C 159.644531 392.148438 161.046875 389.6875 159.558594 390.484375 "/><path style=" stroke:none;fill-rule:nonzero;fill:rgb(85.099792%,85.099792%,85.099792%);fill-opacity:1;" d="M 166.664062 368.550781 C 166.898438 368.84375 166.898438 368.84375 166.664062 368.550781 Z M 166.664062 368.550781 "/></g></svg>